<?xml version="1.0" standalone="no"?>
<!DOCTYPE svg PUBLIC "-//W3C//DTD SVG 1.1//EN" "http://www.w3.org/Graphics/SVG/1.1/DTD/svg11.dtd" >
<svg xmlns="http://www.w3.org/2000/svg">
<metadata>Generated by IcoMoon</metadata>
<defs>
<font id="icon-1-2" horiz-adv-x="1024">
<font-face units-per-em="1024" ascent="960" descent="-64" />
<missing-glyph horiz-adv-x="1024" />
<glyph unicode="&#x20;" horiz-adv-x="512" d="" />
<glyph unicode="&#xe600;" glyph-name="exponent" d="M682.667 362.667c-2.752 0-5.525 0.512-8.171 1.621-7.979 3.285-13.163 11.093-13.163 19.712v149.333h-64c-11.797 0-21.333 9.536-21.333 21.333s9.536 21.333 21.333 21.333h85.333c11.797 0 21.333-9.536 21.333-21.333v-119.168l134.251 134.251c3.989 4.011 9.408 6.251 15.083 6.251h128v341.333h-597.333v-149.333c0-11.797-9.536-21.333-21.333-21.333s-21.333 9.536-21.333 21.333v170.667c0 11.797 9.536 21.333 21.333 21.333h640c11.797 0 21.333-9.536 21.333-21.333v-384c0-11.797-9.536-21.333-21.333-21.333h-140.501l-164.416-164.416c-4.075-4.075-9.536-6.251-15.083-6.251zM682.667-64h-682.667v84.864c0 51.584 32.64 97.899 81.259 115.243l154.539 55.211v76.587h42.667v-106.667l-182.891-65.301c-31.637-11.307-52.907-41.472-52.907-75.072v-42.197h597.333v42.197c0 33.6-21.248 63.765-52.885 75.093l-182.891 65.301v112.448h42.667v-82.389l154.581-55.211c48.576-17.365 81.195-63.659 81.195-115.243v-84.864zM337.131 222.315c-104.619 0-189.76 100.245-189.76 223.467 0 123.179 85.12 223.424 189.76 223.424s189.76-100.224 189.76-223.424c-0.021-123.221-85.141-223.467-189.76-223.467zM337.131 626.517c-81.109 0-147.093-81.088-147.093-180.757 0-99.691 65.984-180.8 147.093-180.8s147.093 81.109 147.093 180.8c-0.021 99.669-66.005 180.757-147.093 180.757zM460.267 438.336c-40.064 0-71.893 17.003-98.944 52.8-30.165-29.077-79.829-49.856-125.248-49.856-27.605 0-51.477 5.76-75.115 18.133l19.797 37.781c17.515-9.173 34.581-13.248 55.317-13.248 41.856 0 93.291 25.515 107.925 53.547l18.069 34.603 19.371-33.899c27.968-48.981 56.021-63.701 103.232-54.656 4.715 0.896 9.024 0.939 13.205 0.939 1.429 0 2.88-0.085 4.437 0.107l5.163-42.325c-3.477-0.448-6.699-0.469-10.005-0.448-1.493 0.064-3.115 0.149-4.8-0.171-11.349-2.176-22.144-3.307-32.405-3.307zM789.333 746.667c-11.797 0-21.333-9.557-21.333-21.333s9.536-21.333 21.333-21.333c11.797 0 21.333 9.557 21.333 21.333s-9.536 21.333-21.333 21.333v0zM682.667 746.667c-11.797 0-21.333-9.557-21.333-21.333s9.536-21.333 21.333-21.333c11.797 0 21.333 9.557 21.333 21.333s-9.536 21.333-21.333 21.333v0zM576 746.667c-11.797 0-21.333-9.557-21.333-21.333s9.536-21.333 21.333-21.333c11.797 0 21.333 9.557 21.333 21.333s-9.536 21.333-21.333 21.333v0z" />
<glyph unicode="&#xe601;" glyph-name="buy" d="M213.333-64c-47.061 0-85.333 38.272-85.333 85.333s38.272 85.333 85.333 85.333 85.333-38.272 85.333-85.333-38.272-85.333-85.333-85.333zM213.333 64c-23.531 0-42.667-19.136-42.667-42.667s19.136-42.667 42.667-42.667 42.667 19.136 42.667 42.667-19.136 42.667-42.667 42.667zM682.667-64c-47.061 0-85.333 38.272-85.333 85.333s38.272 85.333 85.333 85.333 85.333-38.272 85.333-85.333-38.272-85.333-85.333-85.333zM682.667 64c-23.531 0-42.667-19.136-42.667-42.667s19.136-42.667 42.667-42.667 42.667 19.136 42.667 42.667-19.136 42.667-42.667 42.667zM448 618.667c-11.797 0-21.333 9.536-21.333 21.333v298.667c0 11.797 9.536 21.333 21.333 21.333s21.333-9.536 21.333-21.333v-298.667c0-11.797-9.536-21.333-21.333-21.333zM448 618.667c-5.461 0-10.923 2.091-15.083 6.251l-128 128c-8.341 8.341-8.341 21.824 0 30.165s21.824 8.341 30.165 0l112.917-112.917 112.917 112.917c8.341 8.341 21.824 8.341 30.165 0s8.341-21.824 0-30.165l-128-128c-4.16-4.16-9.621-6.251-15.083-6.251zM682.667 64h-469.333c-11.797 0-21.333 9.536-21.333 21.333s9.536 21.333 21.333 21.333h452.437l166.784 708.885c2.283 9.643 10.88 16.448 20.779 16.448h149.333c11.797 0 21.333-9.536 21.333-21.333s-9.536-21.333-21.333-21.333h-132.437l-166.784-708.885c-2.283-9.643-10.88-16.448-20.779-16.448zM704 149.333h-554.667c-9.195 0-17.323 5.867-20.224 14.592l-128 384c-2.197 6.507-1.088 13.675 2.923 19.221 4.011 5.568 10.453 8.853 17.301 8.853h768c11.797 0 21.333-9.536 21.333-21.333s-9.536-21.333-21.333-21.333h-738.389l113.771-341.333h539.285c11.797 0 21.333-9.536 21.333-21.333s-9.536-21.333-21.333-21.333z" />
<glyph unicode="&#xe602;" glyph-name="calendar" horiz-adv-x="1031" d="M279.715 383.544h65.672v-65.672h-65.672v65.672zM411.059 383.544h65.672v-65.672h-65.672v65.672zM544.836 383.544h65.672v-65.672h-65.672v65.672zM676.181 252.2h65.672v-65.672h-65.672v65.672zM279.715 252.2h65.672v-65.672h-65.672v65.672zM411.059 252.2h65.672v-65.672h-65.672v65.672zM544.836 252.2h65.672v-65.672h-65.672v65.672zM676.181 383.544h65.672v-65.672h-65.672v65.672zM741.853 845.682v65.672h-65.672v-65.672h-330.793v65.672h-65.672v-65.672h-199.449v-858.603h858.603v858.603h-197.017zM873.197 52.751h-724.827v462.138h727.259v-462.138zM873.197 580.561h-724.827v199.449h131.344v-65.672h65.672v65.672h330.793v-65.672h65.672v65.672h131.344v-199.449z" />
<glyph unicode="&#xe603;" glyph-name="facebook" horiz-adv-x="969" d="M485.55 910.878c-256.945 0-466.657-207.823-466.657-464.768s207.823-464.768 464.768-464.768 464.768 207.823 464.768 464.768c1.889 256.945-205.934 464.768-462.878 464.768zM608.354 448h-81.24c0-128.472 0-287.173 0-287.173h-119.026c0 0 0 156.812 0 287.173h-56.679v102.022h56.679v66.125c0 47.232 22.672 120.915 120.915 120.915h88.797v-98.244c0 0-52.9 0-64.236 0s-24.561-5.668-24.561-28.339v-60.458h90.686l-11.336-102.022z" />
<glyph unicode="&#xe604;" glyph-name="map" d="M512-58.859l-17.557 25.408c-13.205 19.136-323.776 470.805-323.776 652.117 0 188.203 153.131 341.333 341.333 341.333s341.333-153.131 341.333-341.333c0-181.312-310.571-632.981-323.776-652.117l-17.557-25.408zM512 917.333c-164.693 0-298.667-133.973-298.667-298.667 0-144.789 232.213-502.507 298.667-601.899 66.453 99.392 298.667 457.109 298.667 601.899 0 164.693-133.973 298.667-298.667 298.667zM512 469.333c-82.325 0-149.333 66.987-149.333 149.333s67.008 149.333 149.333 149.333 149.333-66.987 149.333-149.333-67.008-149.333-149.333-149.333zM512 725.333c-58.816 0-106.667-47.851-106.667-106.667s47.851-106.667 106.667-106.667 106.667 47.851 106.667 106.667-47.851 106.667-106.667 106.667z" />
<glyph unicode="&#xe605;" glyph-name="gplus" horiz-adv-x="969" d="M398.642 480.118c11.336 0 22.672 3.779 30.229 13.225 11.336 13.225 17.004 35.897 15.114 60.458-5.668 43.454-35.897 79.351-68.015 79.351h-1.889c-11.336 0-20.782-3.779-30.229-13.225-11.336-13.225-17.004-35.897-13.225-58.568 3.779-43.454 35.897-79.351 68.015-81.24v0zM432.649 349.756c-3.779 1.889-5.668 3.779-9.446 7.557-9.446 3.779-20.782 3.779-32.118 5.668h-1.889c-49.122 0-92.576-30.229-92.576-64.236 0-37.786 37.786-66.125 85.018-66.125 62.347 0 94.465 20.782 94.465 64.236 0 3.779 0 7.557-1.889 13.225-1.889 13.225-17.004 24.561-41.565 39.675zM485.55 910.878c-256.945 0-466.657-207.823-466.657-464.768s207.823-464.768 464.768-464.768c256.945 0 464.768 207.823 464.768 464.768 1.889 256.945-205.934 464.768-462.878 464.768zM442.096 192.945c-18.893-5.668-37.786-7.557-60.458-7.557s-45.343 1.889-66.125 7.557c-41.565 9.446-69.904 30.229-85.018 54.79-5.668 11.336-9.446 22.672-9.446 34.007 0 13.225 3.779 24.561 9.446 37.786 22.672 47.232 81.24 79.351 145.476 79.351 0 0 1.889 0 1.889 0-5.668 9.446-7.557 18.893-7.557 28.339 0 5.668 0 9.446 1.889 15.114-68.015 1.889-119.026 51.011-119.026 117.137 0 47.232 37.786 92.576 90.686 109.579 15.114 5.668 32.118 7.557 47.232 7.557h145.476c5.668 0 9.446-3.779 11.336-7.557 1.889-5.668 0-9.446-3.779-13.225l-32.118-22.672c-1.889-1.889-3.779-1.889-7.557-1.889h-11.336c15.114-18.893 24.561-43.454 24.561-71.793 0-32.118-17.004-62.347-45.343-85.018-22.672-17.004-22.672-22.672-22.672-32.118 0-5.668 17.004-24.561 34.007-35.897 41.565-28.339 56.679-56.679 56.679-103.911-1.889-51.011-39.675-92.576-98.244-109.579zM770.834 442.332c0-5.668-5.668-11.336-11.336-11.336h-83.129v-83.129c0-5.668-5.668-11.336-11.336-11.336h-22.672c-5.668 0-11.336 5.668-11.336 11.336v83.129h-83.129c-5.668 0-11.336 5.668-11.336 11.336v22.672c0 5.668 5.668 11.336 11.336 11.336h83.129v83.129c0 5.668 5.668 11.336 11.336 11.336h22.672c5.668 0 11.336-5.668 11.336-11.336v-83.129h83.129c5.668 0 11.336-5.668 11.336-11.336v-22.672z" />
<glyph unicode="&#xe606;" glyph-name="linkedin" horiz-adv-x="969" d="M485.55 910.878c-256.945 0-466.657-207.823-466.657-464.768s207.823-464.768 464.768-464.768c256.945 0 464.768 207.823 464.768 464.768 1.889 256.945-205.934 464.768-462.878 464.768zM744.384 219.395c0-20.782-17.004-37.786-37.786-37.786h-443.985c-20.782 0-37.786 17.004-37.786 37.786v447.764c0 20.782 17.004 37.786 37.786 37.786h442.096c20.782 0 37.786-17.004 37.786-37.786v-447.764zM574.347 508.458c-41.565 0-60.458-22.672-69.904-39.675v0 0c0 0 0 0 0 0v34.007h-77.461c1.889-22.672 0-236.162 0-236.162h77.461v132.251c0 7.557 0 13.225 1.889 18.893 5.668 13.225 18.893 28.339 39.675 28.339 28.339 0 39.675-20.782 39.675-52.9v-126.583h79.351v136.030c0 71.793-39.675 105.801-90.686 105.801zM343.852 616.148c-26.45 0-43.454-17.004-43.454-41.565 0-22.672 17.004-41.565 43.454-41.565v0c26.45 0 43.454 18.893 43.454 41.565 0 24.561-17.004 41.565-43.454 41.565zM304.177 502.79h79.351v-236.162h-79.351v236.162z" />
<glyph unicode="&#xe607;" glyph-name="lock" d="M554.667 320c0-23.564-19.103-42.667-42.667-42.667s-42.667 19.103-42.667 42.667c0 23.564 19.103 42.667 42.667 42.667s42.667-19.103 42.667-42.667zM512 149.333c-11.797 0-21.333 9.536-21.333 21.333v128c0 11.797 9.536 21.333 21.333 21.333s21.333-9.536 21.333-21.333v-128c0-11.797-9.536-21.333-21.333-21.333zM896-64h-768v640h768v-640zM170.667-21.333h682.667v554.667h-682.667v-554.667zM768 554.667h-42.667v149.333c0 117.632-95.701 213.333-213.333 213.333s-213.333-95.701-213.333-213.333v-149.333h-42.667v149.333c0 141.163 114.837 256 256 256s256-114.837 256-256v-149.333z" />
<glyph unicode="&#xe608;" glyph-name="menu" horiz-adv-x="1632" d="M0 960v-128h1632v128h-1632zM0 384h1632v128h-1632v-128zM0-64h1632v128h-1632v-128z" />
<glyph unicode="&#xe609;" glyph-name="pdf" horiz-adv-x="888" d="M618.045 406.576c-26.511 0-59.65-4.971-94.447-13.256-38.11 28.168-76.22 64.621-109.359 101.074 11.599 107.702-6.628 152.44-23.197 170.667-13.256 14.913-31.482 19.883-51.366 14.913-23.197-6.628-31.482-21.54-34.796-31.482-13.256-46.395 43.081-119.301 81.191-162.382-6.628-49.709-16.57-102.731-31.482-150.783-34.796-16.57-64.621-34.796-86.162-51.366-26.511-21.54-43.081-43.081-46.395-62.964-3.314-16.57 3.314-31.482 14.913-44.738 9.942-9.942 21.54-14.913 33.139-14.913v0c49.709 0 87.819 92.79 107.702 152.44 44.738 19.883 92.79 38.11 140.841 49.709 39.767-29.825 94.447-62.964 134.214-62.964 26.511 0 44.738 14.913 49.709 39.767 4.971 21.54-1.657 34.796-8.285 43.081-14.913 14.913-39.767 23.197-76.22 23.197zM270.084 189.515c-3.314 0-8.285 1.657-13.256 6.628-8.285 8.285-8.285 14.913-6.628 18.227 3.314 21.54 38.11 51.366 91.133 79.534-28.168-71.249-54.68-104.388-71.249-104.388zM331.392 640.207c1.657 4.971 3.314 9.942 14.913 13.256 3.314 0 4.971 1.657 8.285 1.657 4.971 0 9.942-1.657 14.913-6.628 14.913-16.57 21.54-61.307 18.227-120.958-34.796 39.767-64.621 87.819-56.337 112.673zM487.146 385.036c-33.139-9.942-67.935-21.54-99.417-34.796v1.657c9.942 34.796 16.57 71.249 21.54 106.045v0 0c24.854-26.511 51.366-51.366 77.877-72.906v0 0zM672.725 346.926c-3.314-13.256-8.285-16.57-21.54-16.57-21.54 0-56.337 14.913-96.104 43.081 23.197 4.971 44.738 6.628 62.964 6.628 34.796 0 48.052-8.285 51.366-13.256 1.657-3.314 4.971-8.285 3.314-19.883zM677.696 910.291h-632.958v-949.437h795.34v787.055l-162.382 162.382zM685.981 862.239l104.388-104.388h-104.388v104.388zM72.906-9.32v891.443h584.906v-154.097h154.097v-739.003h-739.003z" />
<glyph unicode="&#xe60a;" glyph-name="twitter" horiz-adv-x="969" d="M483.661 912.768c-256.945 0-464.768-207.823-464.768-464.768s207.823-464.768 464.768-464.768c256.945 0 464.768 207.823 464.768 464.768s-207.823 464.768-464.768 464.768zM717.934 542.465c0-5.668 0-9.446 0-15.114 0-154.923-117.137-334.406-334.406-334.406-66.125 0-128.472 18.893-179.483 52.9 9.446-1.889 18.893-1.889 28.339-1.889 54.79 0 105.801 18.893 145.476 51.011-51.011 1.889-94.465 34.007-109.579 81.24 7.557-1.889 15.114-1.889 22.672-1.889 11.336 0 20.782 1.889 30.229 3.779-52.9 11.336-94.465 58.568-94.465 115.247 0 0 0 1.889 0 1.889 15.114-9.446 34.007-13.225 52.9-15.114-32.118 20.782-52.9 56.679-52.9 98.244 0 20.782 5.668 41.565 15.114 58.568 58.568-71.793 143.587-117.137 241.83-122.804-1.889 9.446-3.779 17.004-3.779 26.45 0 64.236 52.9 117.137 117.137 117.137 34.007 0 64.236-15.114 85.018-37.786 26.45 5.668 51.011 15.114 73.683 28.339-9.446-28.339-26.45-51.011-51.011-64.236 24.561 3.779 47.232 9.446 68.015 18.893-11.336-24.561-32.118-45.343-54.79-60.458z" />
<glyph unicode="&#xe60b;" glyph-name="long-arrow-right" horiz-adv-x="1738" d="M1232.524 812.916c-96.194 96.194-224.039 148.945-361.193 148.945-135.913 0-263.758-52.752-359.952-148.945s-148.945-224.039-148.945-360.572c0-135.292 52.752-263.137 148.945-360.572 95.573-96.194 223.418-148.945 360.572-148.945 135.292 0 263.137 52.752 360.572 148.945 96.194 95.573 148.945 223.418 148.945 360.572 0 135.292-52.752 263.137-148.945 360.572zM1326.235 453.585c0-121.018-47.166-235.21-133.43-320.853-85.644-85.644-199.835-133.43-320.853-133.43s-235.21 47.166-320.853 133.43c-85.644 85.644-133.43 199.835-133.43 320.853s47.166 235.21 133.43 320.853c84.402 85.644 198.594 132.81 320.233 132.81s235.83-47.166 321.474-133.43c85.644-85.023 133.43-199.215 133.43-320.233zM904.844 679.486c-5.585 5.585-12.412 8.068-19.859 8.068s-14.274-3.103-19.239-8.688c-4.965-5.585-8.068-12.412-8.068-19.239 0-7.447 3.103-14.274 8.068-19.239l155.152-160.116h-345.678c-15.515 0-27.927-12.412-27.927-27.927s12.412-27.927 27.927-27.927h346.298l-155.152-161.358c-11.171-11.171-11.171-27.927 0-39.098 4.965-4.965 11.792-8.068 19.859-8.068 7.447 0 14.274 3.103 19.859 8.688l200.456 208.524c4.965 4.965 8.068 11.792 8.068 19.859 0 7.447-3.103 14.274-8.068 19.239l-201.697 207.282z" />
<glyph unicode="&#xe60c;" glyph-name="short-arrow-btm" horiz-adv-x="1738" d="M891.962 213.562l440.010 438.768c4.965 4.344 7.447 10.55 7.447 17.377s-2.482 13.033-7.447 17.377-11.171 7.447-17.377 7.447-12.412-2.482-17.377-7.447l-422.633-420.771-422.633 420.771c-4.965 4.965-11.171 7.447-17.377 7.447s-12.412-2.482-17.377-7.447c-4.965-4.965-6.827-10.55-6.827-17.998 0-6.206 3.103-12.412 5.585-16.136l0.621-0.621 441.251-439.389c8.688-8.688 24.204-8.688 34.133 0.621z" />
<glyph unicode="&#xe60d;" glyph-name="short-arrow-top" horiz-adv-x="1738" d="M846.038 682.438l-440.010-438.768c-4.965-4.344-7.447-10.55-7.447-17.377s2.482-13.033 7.447-17.377 11.171-7.447 17.377-7.447 12.412 2.482 17.377 7.447l422.633 420.771 422.633-420.771c4.965-4.965 11.171-7.447 17.377-7.447s12.412 2.482 17.377 7.447c4.965 4.965 6.827 10.55 6.827 17.998 0 6.206-3.103 12.412-5.585 16.136l-0.621 0.621-441.251 439.389c-8.688 8.688-24.204 8.688-34.133-0.621z" />
<glyph unicode="&#xe60e;" glyph-name="short-arrow-left" horiz-adv-x="1930" d="M714.562 470.962l438.768 440.010c4.344 4.965 10.55 7.447 17.377 7.447s13.033-2.482 17.377-7.447 7.447-11.171 7.447-17.377-2.482-12.412-7.447-17.377l-420.771-422.633 420.771-422.633c4.965-4.965 7.447-11.171 7.447-17.377s-2.482-12.412-7.447-17.377c-4.965-4.965-10.55-6.827-17.998-6.827-6.206 0-12.412 3.103-16.136 5.585l-0.621 0.621-439.389 441.251c-8.688 8.688-8.688 24.204 0.621 34.133z" />
<glyph unicode="&#xe60f;" glyph-name="short-arrow-right" horiz-adv-x="1738" d="M1103.438 470.962l-438.768 440.010c-4.344 4.965-10.55 7.447-17.377 7.447s-13.033-2.482-17.377-7.447-7.447-11.171-7.447-17.377 2.482-12.412 7.447-17.377l420.771-422.633-420.771-422.633c-4.965-4.965-7.447-11.171-7.447-17.377s2.482-12.412 7.447-17.377c4.965-4.965 10.55-6.827 17.998-6.827 6.206 0 12.412 3.103 16.136 5.585l0.621 0.621 439.389 441.251c8.688 8.688 8.688 24.204-0.621 34.133z" />
<glyph unicode="&#xe610;" glyph-name="pause" horiz-adv-x="1738" d="M716.8 611.219c-13.653 0-24.824-11.171-24.824-24.824v-269.343c0-13.653 11.171-24.824 24.824-24.824s24.824 11.171 24.824 24.824v269.343c0 13.653-11.171 24.824-24.824 24.824zM911.050 611.219c-13.653 0-24.824-11.171-24.824-24.824v-269.343c0-13.653 11.171-24.824 24.824-24.824s24.824 11.171 24.824 24.824v269.343c0 13.653-11.171 24.824-24.824 24.824zM1166.739 796.781c-92.47 92.47-214.73 142.739-345.057 142.739s-253.207-50.89-345.057-142.739c-92.47-92.47-142.739-214.73-142.739-345.057s50.89-253.207 142.739-345.057c92.47-92.47 214.73-142.739 345.057-142.739s253.207 50.89 345.057 142.739c92.47 92.47 142.739 214.73 142.739 345.057s-50.269 253.207-142.739 345.057zM1131.985 141.421c-82.541-82.541-193.008-128.465-310.303-128.465s-227.142 45.925-310.303 128.465c-82.541 82.541-128.465 193.008-128.465 310.303s45.925 227.142 128.465 310.303c82.541 82.541 193.008 128.465 310.303 128.465s227.142-45.925 310.303-128.465c82.541-82.541 128.465-193.008 128.465-310.303s-45.925-227.142-128.465-310.303z" />
<glyph unicode="&#xe611;" glyph-name="play" horiz-adv-x="1738" d="M989.459 497.028l-130.948 103.021c-10.55 8.688-26.686 6.827-34.754-4.344-8.688-10.55-6.827-26.686 4.344-34.754l130.948-103.021c1.862-1.241 1.862-3.103 1.862-3.724 0-1.241-0.621-2.482-1.862-3.724l-130.948-103.021c-10.55-8.688-12.412-24.204-4.344-34.754 4.965-6.206 12.412-9.309 19.239-9.309 5.585 0 10.55 1.862 15.515 5.585l130.948 103.021c13.033 10.55 21.101 26.065 21.101 42.822 0 16.136-7.447 32.272-21.101 42.201zM1214.739 799.884c-91.85 91.85-214.73 142.739-345.057 142.739s-253.207-50.89-345.678-142.739c-91.85-92.47-142.739-215.35-142.739-345.678s50.89-253.207 143.36-345.678c92.47-92.47 214.73-143.36 345.678-143.36s253.207 50.89 345.678 143.36c92.47 92.47 143.36 214.73 143.36 345.678-1.241 130.327-52.131 253.207-144.601 345.678zM1179.985 143.903c-83.161-83.161-193.008-128.465-310.303-128.465s-227.142 45.925-310.303 128.465c-83.161 83.161-128.465 193.008-128.465 310.303s45.925 227.142 128.465 310.303c83.161 83.161 193.008 128.465 310.303 128.465s227.142-45.925 310.303-128.465c83.161-83.161 128.465-193.008 128.465-310.303s-45.925-227.142-128.465-310.303z" />
<glyph unicode="&#xe612;" glyph-name="arrow-top" horiz-adv-x="1738" d="M507.807 793.526c-94.332-93.712-145.842-219.074-145.842-352.504 0-132.81 52.131-258.172 146.463-352.504 194.25-194.25 510.759-194.25 705.008 0 93.712 93.712 145.842 219.074 145.842 352.504 0 131.568-52.131 256.931-146.463 352.504-93.712 93.712-219.074 145.842-352.504 145.842-132.81 0-258.172-51.51-352.504-145.842zM860.312 884.135c117.915 0 229.624-45.925 313.406-130.327s130.327-194.87 130.327-313.406-45.925-229.624-130.327-313.406c-173.149-172.528-454.904-172.528-627.433 0-83.782 83.782-130.327 194.87-130.327 313.406s46.545 229.624 130.948 313.406c83.782 84.402 195.491 130.327 313.406 130.327zM704.539 422.404c-5.585-4.965-8.688-11.792-8.688-19.239s3.103-14.274 8.068-19.239c10.55-10.55 27.927-10.55 38.478 0l128.465 125.983 128.465-126.604 1.241-0.621c5.585-4.344 11.792-6.827 18.618-6.827 8.068 0 14.274 2.482 19.859 8.068 4.965 4.965 8.068 11.792 8.068 19.859 0 8.688-3.724 16.136-9.93 21.101l-145.222 142.739c-4.344 4.344-11.171 7.447-16.756 8.068-1.241 0-2.482 0.621-4.965 0.621-8.068 0-14.274-2.482-19.859-8.068l-145.842-145.842z" />
<glyph unicode="&#xe613;" glyph-name="arrow-btm" horiz-adv-x="1738" d="M1230.193 102.474c94.332 93.712 145.842 219.074 145.842 352.504 0 132.81-52.131 258.172-146.463 352.504-194.25 194.25-510.759 194.25-705.008 0-93.712-93.712-145.842-219.074-145.842-352.504 0-131.568 52.131-256.931 146.463-352.504 93.712-93.712 219.074-145.842 352.504-145.842 132.81 0 258.172 51.51 352.504 145.842zM877.688 11.865c-117.915 0-229.624 45.925-313.406 130.327s-130.327 194.87-130.327 313.406 45.925 229.624 130.327 313.406c173.149 172.528 454.904 172.528 627.433 0 83.782-83.782 130.327-194.87 130.327-313.406s-46.545-229.624-130.948-313.406c-83.782-84.402-195.491-130.327-313.406-130.327zM1033.461 473.596c5.585 4.965 8.688 11.792 8.688 19.239s-3.103 14.274-8.068 19.239c-10.55 10.55-27.927 10.55-38.478 0l-128.465-125.983-128.465 126.604-1.241 0.621c-5.585 4.344-11.792 6.827-18.618 6.827-8.068 0-14.274-2.482-19.859-8.068-4.965-4.965-8.068-11.792-8.068-19.859 0-8.688 3.724-16.136 9.93-21.101l145.222-142.739c4.344-4.344 11.171-7.447 16.756-8.068 1.241 0 2.482-0.621 4.965-0.621 8.068 0 14.274 2.482 19.859 8.068l145.842 145.842z" />
<glyph unicode="&#xe614;" glyph-name="arrow-left" horiz-adv-x="1738" d="M523.474 809.193c93.712 94.332 219.074 145.842 352.504 145.842 132.81 0 258.172-52.131 352.504-146.463 194.25-194.25 194.25-510.759 0-705.008-93.712-93.712-219.074-145.842-352.504-145.842-131.568 0-256.931 52.131-352.504 146.463-93.712 93.712-145.842 219.074-145.842 352.504 0 132.81 51.51 258.172 145.842 352.504zM432.865 456.688c0-117.915 45.925-229.624 130.327-313.406s194.87-130.327 313.406-130.327 229.624 45.925 313.406 130.327c172.528 173.149 172.528 454.904 0 627.433-83.782 83.782-194.87 130.327-313.406 130.327s-229.624-46.545-313.406-130.948c-84.402-83.782-130.327-195.491-130.327-313.406zM894.596 612.461c4.965 5.585 11.792 8.688 19.239 8.688s14.274-3.103 19.239-8.068c10.55-10.55 10.55-27.927 0-38.478l-125.983-128.465 126.604-128.465 0.621-1.241c4.344-5.585 6.827-11.792 6.827-18.618 0-8.068-2.482-14.274-8.068-19.859-4.965-4.965-11.792-8.068-19.859-8.068-8.688 0-16.136 3.724-21.101 9.93l-142.739 145.222c-4.344 4.344-7.447 11.171-8.068 16.756 0 1.241-0.621 2.482-0.621 4.965 0 8.068 2.482 14.274 8.068 19.859l145.842 145.842z" />
<glyph unicode="&#xe615;" glyph-name="cloudup" horiz-adv-x="1738" d="M1017.794 332.567l-98.676 78.817c-4.965 4.344-13.033 4.965-19.239 0l-98.056-78.196c-3.103-2.482-5.585-5.585-6.206-9.309-0.621-4.344 0-8.688 2.482-12.412 2.482-4.344 7.447-6.827 12.412-6.827 3.103 0 6.827 1.241 9.309 3.724l72.611 57.716v-341.333c0-8.688 6.827-15.515 15.515-15.515s15.515 6.827 15.515 15.515v342.575l73.852-58.958 1.862-1.241c1.862-1.241 4.344-2.482 8.068-2.482 4.344 0 8.068 1.241 11.792 4.344l1.241 0.621 0.621 1.241c4.965 6.827 3.103 16.756-3.103 21.721zM1337.406 511.922c-3.724 103.641-48.407 201.076-125.983 274.928-80.679 76.955-187.423 119.777-300.373 119.777-203.559 0-386.017-135.292-428.218-315.268h-21.101c-120.398 0-218.453-94.953-218.453-212.247 0-119.156 93.091-212.247 212.247-212.247h235.83c8.688 0 15.515 6.827 15.515 15.515s-6.827 15.515-15.515 15.515h-236.451c-101.779 0-181.217 79.438-181.217 181.217 0 99.918 83.782 181.217 187.423 181.217h45.925l3.103 12.412c32.892 172.528 205.421 302.856 400.291 302.856 104.262 0 203.559-39.719 279.273-111.709 75.093-71.37 116.674-166.322 116.674-266.861v-15.515h15.515c79.438 0 142.119-62.061 142.119-141.498s-62.681-142.119-142.119-142.119h-196.732c-8.688 0-15.515-6.827-15.515-15.515s6.827-15.515 15.515-15.515h196.732c96.815 0 173.149 75.714 173.77 172.528 0 90.608-68.887 165.081-158.255 172.528z" />
<glyph unicode="&#xe616;" glyph-name="search" horiz-adv-x="1738" d="M1361.61-3.801l-296.029 296.029c62.061 71.99 96.194 162.599 96.194 256.931 0.621 106.124-39.719 205.421-114.192 279.893-76.335 75.093-176.252 116.674-281.755 116.674s-204.8-40.96-279.273-115.433c-74.473-75.093-115.433-175.011-115.433-281.755 0-105.503 40.96-204.8 115.433-278.652 74.473-74.473 173.77-115.433 279.273-115.433 93.712 0 184.32 32.892 255.69 93.712l296.029-296.029c4.344-4.344 11.171-8.688 22.342-8.688 9.309 0 17.377 3.724 22.962 9.93 4.965 6.206 7.447 13.653 7.447 21.101 0 10.55-4.965 17.377-8.688 21.721zM531.239 785.61c62.681 63.302 145.842 98.056 234.589 98.056 89.367 0 173.149-35.375 235.83-99.297 62.061-62.681 96.815-146.463 96.815-235.21-0.621-89.367-35.375-172.528-98.676-235.21-62.681-63.302-145.842-98.056-234.589-98.056-88.126 0-171.908 34.754-234.589 98.056-63.302 62.681-98.056 145.842-98.056 234.589 0 89.367 34.754 173.77 98.676 237.072z" />
<glyph unicode="&#xe617;" glyph-name="cross-alt" horiz-adv-x="1738" d="M881.881 454.827l425.736 426.356c6.206 6.206 6.206 15.515 0 21.721-5.585 6.206-15.515 6.206-21.721 0l-425.736-426.356-425.736 425.736c-5.585 6.206-15.515 6.206-21.721 0s-6.206-15.515 0-21.721l425.736-425.736-425.736-425.736c-6.206-6.206-6.206-15.515 0-21.721 3.103-3.103 6.827-4.344 11.171-4.344 3.724 0 8.068 1.862 11.171 4.344l425.115 425.736 425.736-425.736c3.103-3.103 6.827-4.344 11.171-4.344 3.724 0 8.068 1.862 10.55 4.344 6.206 6.206 6.206 15.515 0 21.721l-425.736 425.736z" />
<glyph unicode="&#xe618;" glyph-name="cross" d="M1014.662 137.34c-0.004 0.004-0.008 0.008-0.012 0.010l-310.644 310.65 310.644 310.65c0.004 0.004 0.008 0.006 0.012 0.010 3.344 3.346 5.762 7.254 7.312 11.416 4.246 11.376 1.824 24.682-7.324 33.83l-146.746 146.746c-9.148 9.146-22.45 11.566-33.828 7.32-4.16-1.55-8.070-3.968-11.418-7.31 0-0.004-0.004-0.006-0.008-0.010l-310.648-310.652-310.648 310.65c-0.004 0.004-0.006 0.006-0.010 0.010-3.346 3.342-7.254 5.76-11.414 7.31-11.38 4.248-24.682 1.826-33.83-7.32l-146.748-146.748c-9.148-9.148-11.568-22.452-7.322-33.828 1.552-4.16 3.97-8.072 7.312-11.416 0.004-0.002 0.006-0.006 0.010-0.010l310.65-310.648-310.65-310.652c-0.002-0.004-0.006-0.006-0.008-0.010-3.342-3.346-5.76-7.254-7.314-11.414-4.248-11.376-1.826-24.682 7.322-33.83l146.748-146.746c9.15-9.148 22.452-11.568 33.83-7.322 4.16 1.552 8.070 3.97 11.416 7.312 0.002 0.004 0.006 0.006 0.010 0.010l310.648 310.65 310.648-310.65c0.004-0.002 0.008-0.006 0.012-0.008 3.348-3.344 7.254-5.762 11.414-7.314 11.378-4.246 24.684-1.826 33.828 7.322l146.746 146.748c9.148 9.148 11.57 22.454 7.324 33.83-1.552 4.16-3.97 8.068-7.314 11.414z" />
<glyph unicode="&#xe619;" glyph-name="emptycart" horiz-adv-x="1738" d="M1133.113 678.506h-86.346v88.599c0 98.36-80.34 178.699-178.699 178.699s-178.699-80.34-178.699-178.699v-88.599h-86.346c-50.306 0-91.601-41.295-91.601-91.601v-543.607c0-50.306 41.295-91.601 91.601-91.601h529.34c50.306 0 91.601 41.295 91.601 91.601v542.855c1.501 51.057-39.795 92.353-90.849 92.353zM750.184 767.106c0 65.324 53.309 118.631 118.631 118.631s118.631-53.309 118.631-118.631v-88.599h-236.514v88.599zM1165.398 42.549c0-17.269-14.266-31.535-31.535-31.535h-529.34c-17.269 0-31.535 14.266-31.535 31.535v543.607c0 17.269 14.266 31.535 31.535 31.535h86.346v-44.299c0-16.517 13.514-30.034 30.034-30.034s30.034 13.514 30.034 30.034v44.299h236.514v-44.299c0-16.517 13.514-30.034 30.034-30.034s30.034 13.514 30.034 30.034v44.299h86.346c17.269 0 31.535-14.266 31.535-31.535v-543.607zM994.206 417.215c-12.013 12.013-30.785 12.013-42.798 0l-82.592-82.592-82.592 82.592c-12.013 12.013-30.785 12.013-42.798 0s-12.013-30.785 0-42.798l82.592-82.592-82.592-82.592c-12.013-12.013-12.013-30.785 0-42.798 6.007-6.007 13.514-9.010 21.024-9.010s15.016 3.003 21.024 9.010l82.592 82.592 82.592-82.592c6.007-6.007 13.514-9.010 21.024-9.010s15.016 3.003 21.024 9.010c12.013 12.013 12.013 30.785 0 42.798l-82.592 82.592 82.592 82.592c12.763 12.013 12.763 31.535 1.501 42.798z" />
<glyph unicode="&#xe61a;" glyph-name="arrow-right" horiz-adv-x="1738" d="M1214.526 809.193c-93.712 94.332-219.074 145.842-352.504 145.842-132.81 0-258.172-52.131-352.504-146.463-194.25-194.25-194.25-510.759 0-705.008 93.712-93.712 219.074-145.842 352.504-145.842 131.568 0 256.931 52.131 352.504 146.463 93.712 93.712 145.842 219.074 145.842 352.504 0 132.81-51.51 258.172-145.842 352.504zM1305.135 456.688c0-117.915-45.925-229.624-130.327-313.406s-194.87-130.327-313.406-130.327-229.624 45.925-313.406 130.327c-172.528 173.149-172.528 454.904 0 627.433 83.782 83.782 194.87 130.327 313.406 130.327s229.624-46.545 313.406-130.948c84.402-83.782 130.327-195.491 130.327-313.406zM843.404 612.461c-4.965 5.585-11.792 8.688-19.239 8.688s-14.274-3.103-19.239-8.068c-10.55-10.55-10.55-27.927 0-38.478l125.983-128.465-126.604-128.465-0.621-1.241c-4.344-5.585-6.827-11.792-6.827-18.618 0-8.068 2.482-14.274 8.068-19.859 4.965-4.965 11.792-8.068 19.859-8.068 8.688 0 16.136 3.724 21.101 9.93l142.739 145.222c4.344 4.344 7.447 11.171 8.068 16.756 0 1.241 0.621 2.482 0.621 4.965 0 8.068-2.482 14.274-8.068 19.859l-145.842 145.842z" />
<glyph unicode="&#xe61b;" glyph-name="long-arrow-btm" horiz-adv-x="1738" d="M1233.916 84.476c96.194 96.194 148.945 224.039 148.945 361.193 0 135.913-52.752 263.758-148.945 359.952s-224.039 148.945-360.572 148.945c-135.292 0-263.137-52.752-360.572-148.945-96.194-95.573-148.945-223.418-148.945-360.572 0-135.292 52.752-263.137 148.945-360.572 95.573-96.194 223.418-148.945 360.572-148.945 135.292 0 263.137 52.752 360.572 148.945zM874.585-9.235c-121.018 0-235.21 47.166-320.853 133.43-85.644 85.644-133.43 199.835-133.43 320.853s47.166 235.21 133.43 320.853c85.644 85.644 199.835 133.43 320.853 133.43s235.21-47.166 320.853-133.43c85.644-84.402 132.81-198.594 132.81-320.233s-47.166-235.83-133.43-321.474c-85.023-85.644-199.215-133.43-320.233-133.43zM1100.486 412.156c5.585 5.585 8.068 12.412 8.068 19.859s-3.103 14.274-8.688 19.239c-5.585 4.965-12.412 8.068-19.239 8.068-7.447 0-14.274-3.103-19.239-8.068l-160.116-155.152v345.678c0 15.515-12.412 27.927-27.927 27.927s-27.927-12.412-27.927-27.927v-346.298l-161.358 155.152c-11.171 11.171-27.927 11.171-39.098 0-4.965-4.965-8.068-11.792-8.068-19.859 0-7.447 3.103-14.274 8.688-19.859l208.524-200.456c4.965-4.965 11.792-8.068 19.859-8.068 7.447 0 14.274 3.103 19.239 8.068l207.282 201.697z" />
<glyph unicode="&#xe61c;" glyph-name="long-arrow-top" horiz-adv-x="1738" d="M504.084 811.524c-96.194-96.194-148.945-224.039-148.945-361.193 0-135.913 52.752-263.758 148.945-359.952s224.039-148.945 360.572-148.945c135.292 0 263.137 52.752 360.572 148.945 96.194 95.573 148.945 223.418 148.945 360.572 0 135.292-52.752 263.137-148.945 360.572-95.573 96.194-223.418 148.945-360.572 148.945-135.292 0-263.137-52.752-360.572-148.945zM863.415 905.235c121.018 0 235.21-47.166 320.853-133.43 85.644-85.644 133.43-199.835 133.43-320.853s-47.166-235.21-133.43-320.853c-85.644-85.644-199.835-133.43-320.853-133.43s-235.21 47.166-320.853 133.43c-85.644 84.402-132.81 198.594-132.81 320.233s47.166 235.83 133.43 321.474c85.023 85.644 199.215 133.43 320.233 133.43zM637.514 483.844c-5.585-5.585-8.068-12.412-8.068-19.859s3.103-14.274 8.688-19.239c5.585-4.965 12.412-8.068 19.239-8.068 7.447 0 14.274 3.103 19.239 8.068l160.116 155.152v-345.678c0-15.515 12.412-27.927 27.927-27.927s27.927 12.412 27.927 27.927v346.298l161.358-155.152c11.171-11.171 27.927-11.171 39.098 0 4.965 4.965 8.068 11.792 8.068 19.859 0 7.447-3.103 14.274-8.688 19.859l-208.524 200.456c-4.965 4.965-11.792 8.068-19.859 8.068-7.447 0-14.274-3.103-19.239-8.068l-207.282-201.697z" />
<glyph unicode="&#xe61d;" glyph-name="long-arrow-left" horiz-adv-x="1738" d="M505.476 83.084c96.194-96.194 224.039-148.945 361.193-148.945 135.913 0 263.758 52.752 359.952 148.945s148.945 224.039 148.945 360.572c0 135.292-52.752 263.137-148.945 360.572-95.573 96.194-223.418 148.945-360.572 148.945-135.292 0-263.137-52.752-360.572-148.945-96.194-95.573-148.945-223.418-148.945-360.572 0-135.292 52.752-263.137 148.945-360.572zM411.765 442.415c0 121.018 47.166 235.21 133.43 320.853 85.644 85.644 199.835 133.43 320.853 133.43s235.21-47.166 320.853-133.43c85.644-85.644 133.43-199.835 133.43-320.853s-47.166-235.21-133.43-320.853c-84.402-85.644-198.594-132.81-320.233-132.81s-235.83 47.166-321.474 133.43c-85.644 85.023-133.43 199.215-133.43 320.233zM833.156 216.514c5.585-5.585 12.412-8.068 19.859-8.068s14.274 3.103 19.239 8.688c4.965 5.585 8.068 12.412 8.068 19.239 0 7.447-3.103 14.274-8.068 19.239l-155.152 160.116h345.678c15.515 0 27.927 12.412 27.927 27.927s-12.412 27.927-27.927 27.927h-346.298l155.152 161.358c11.171 11.171 11.171 27.927 0 39.098-4.965 4.965-11.792 8.068-19.859 8.068-7.447 0-14.274-3.103-19.859-8.688l-200.456-208.524c-4.965-4.965-8.068-11.792-8.068-19.859 0-7.447 3.103-14.274 8.068-19.239l201.697-207.282z" />
<glyph unicode="&#xe61e;" glyph-name="phone" horiz-adv-x="1738" d="M1083.578 950.070h-486.555c-22.342 0-40.96-18.618-40.96-40.96v-900.499c0-22.342 18.618-40.96 40.96-40.96h485.935c22.342 0 40.96 18.618 40.96 40.96v900.499c0.621 22.342-17.998 40.96-40.339 40.96zM605.712 748.994h468.558v-583.37h-468.558v583.37zM1074.89 900.422v-101.779h-469.178v101.779h469.178zM605.712 17.299v98.676h468.558v-98.676h-468.558zM763.345 829.673h161.358c13.653 0 24.824 11.171 24.824 24.824s-11.171 24.824-24.824 24.824h-161.358c-13.653 0-24.824-11.171-24.824-24.824s11.171-24.824 24.824-24.824zM840.301 103.564c-22.962 0-42.201-18.618-42.201-42.201 0-22.962 18.618-42.201 42.201-42.201s42.201 18.618 42.201 42.201c0 22.962-19.239 42.201-42.201 42.201zM840.301 53.915c-4.344 0-7.447 3.103-7.447 7.447s3.103 7.447 7.447 7.447c4.344 0 7.447-3.103 7.447-7.447s-3.103-7.447-7.447-7.447z" />
<glyph unicode="&#xe61f;" glyph-name="email" horiz-adv-x="1738" d="M1504.97 732.238v55.855l-1.862 3.724c-14.274 44.684-50.269 89.367-100.538 89.367h-1089.164c-47.787 0-99.297-34.133-99.297-89.988v-681.425c0-22.962 9.309-45.304 25.445-61.44 17.998-18.618 43.442-30.41 68.267-31.030l1.241-0.621h1094.749c47.166 0 81.92 39.098 98.676 75.714l3.103 4.965v634.88zM672.116 517.508l-404.635-421.392c-2.482 4.344-3.724 9.309-3.724 14.274v681.425c0 7.447 3.103 14.274 8.068 20.48 1.241-1.241 2.482-2.482 3.724-3.103l396.567-291.685zM1454.080 703.69v-590.817c-1.241-2.482-2.482-4.965-4.344-7.447l-397.808 418.288 387.879 282.376c6.206-8.688 11.171-19.239 14.274-27.307v-75.093zM994.211 548.538l-0.621-0.621c-1.241-1.241-2.482-3.103-3.103-4.965l-111.709-81.92c-5.585-4.344-12.412-6.827-19.239-6.827-7.447 0-14.274 2.482-20.48 6.827l-502.070 367.399h1045.101l-374.225-273.687c-5.585-0.621-9.93-2.482-13.653-6.206zM809.27 417.59c14.274-10.55 31.030-16.136 49.648-16.136 17.377 0 34.133 5.585 47.787 16.136l104.262 75.714 400.291-420.771c-2.482-0.621-4.965-0.621-8.068-0.621h-1087.922l398.429 415.806 95.573-70.128z" />
<glyph unicode="&#xe620;" glyph-name="down" horiz-adv-x="1738" d="M891.962 213.562l440.010 438.768c4.965 4.344 7.447 10.55 7.447 17.377s-2.482 13.033-7.447 17.377-11.171 7.447-17.377 7.447-12.412-2.482-17.377-7.447l-422.633-420.771-422.633 420.771c-4.965 4.965-11.171 7.447-17.377 7.447s-12.412-2.482-17.377-7.447c-4.965-4.965-6.827-10.55-6.827-17.998 0-6.206 3.103-12.412 5.585-16.136l0.621-0.621 441.251-439.389c8.688-8.688 24.204-8.688 34.133 0.621z" />
<glyph unicode="&#xe621;" glyph-name="img" horiz-adv-x="1738" d="M1368.436 913.455h-834.095c-52.131 0-94.332-42.201-94.332-94.332v-52.752h-72.611c-50.89 0-92.47-41.581-92.47-92.47v-482.832c0 0 0 0 0 0v-115.433c0-50.89 41.581-92.47 92.47-92.47h819.2c50.89 0 92.47 41.581 92.47 92.47v53.993h89.367c52.131 0 94.332 42.201 94.332 94.332v595.161c0 52.131-42.201 94.332-94.332 94.332zM367.399 716.722h819.2c23.583 0 42.822-19.239 42.822-42.822v-575.922l-229.624 196.732-181.217-108.606-260.655 297.891-233.348-233.348v423.253c0 23.583 19.239 42.822 42.822 42.822zM367.399 32.194c-23.583 0-42.822 19.239-42.822 42.822v105.503l230.865 230.865 253.207-289.202 186.182 111.709 221.556-189.905c-7.447-7.447-17.998-11.792-29.789-11.792h-819.2zM1413.12 223.961c0-24.824-19.859-44.684-44.684-44.684h-89.367v494.623c0 50.89-41.581 92.47-92.47 92.47h-696.941v52.752c0 24.824 19.859 44.684 44.684 44.684h834.095c24.824 0 44.684-19.859 44.684-44.684v-595.161zM1015.932 386.56c64.543 0 116.674 52.131 116.674 116.674s-52.131 116.674-116.674 116.674c-64.543 0-116.674-52.131-116.674-116.674s52.131-116.674 116.674-116.674zM1015.932 570.259c37.236 0 67.025-29.789 67.025-67.025s-29.789-67.025-67.025-67.025c-37.236 0-67.025 29.789-67.025 67.025s29.789 67.025 67.025 67.025z" />
<glyph unicode="&#xe622;" glyph-name="check" horiz-adv-x="1738" d="M1315.064 909.11c-42.822 32.272-104.262 23.583-138.395-19.239l-473.522-629.295-166.943 166.322c-38.478 38.478-100.538 38.478-138.395 0-38.478-38.478-38.478-100.538 0-138.395l326.439-326.439 610.056 808.029c31.651 42.822 22.962 104.882-19.239 139.016z" />
<glyph unicode="&#xe623;" glyph-name="checkdisk" horiz-adv-x="1738" d="M868.848 938.899c-271.205 0-490.899-219.695-490.899-490.899s219.695-490.899 490.899-490.899 490.899 219.695 490.899 490.899-219.695 490.899-490.899 490.899zM1154.327 650.318l-373.605-497.105-200.456 200.456c-23.583 23.583-23.583 62.061 0 85.644s62.061 23.583 85.644 0l102.4-102.4 289.823 386.017c21.721 27.927 60.199 32.272 85.644 13.033 27.927-21.101 32.272-59.578 10.55-85.644z" />
<glyph unicode="&#xe624;" glyph-name="plusdisk" horiz-adv-x="1738" d="M1169.842 758.303c-81.92 81.92-191.147 127.224-307.2 127.224s-225.28-45.304-307.2-127.224c-81.92-82.541-127.224-191.147-127.224-307.2s45.304-225.28 127.224-307.2c81.92-81.92 191.147-127.224 307.2-127.224s225.28 45.304 307.2 127.224c81.92 81.92 127.224 191.147 127.224 307.2s-45.304 224.659-127.224 307.2zM1131.985 181.76c-71.99-71.99-167.564-111.709-269.343-111.709s-197.353 39.719-269.343 111.709c-71.99 71.99-111.709 167.564-111.709 269.343s39.719 197.353 111.709 269.343c71.99 71.99 167.564 111.709 269.343 111.709s197.353-39.719 269.343-111.709c71.99-71.99 111.709-167.564 111.709-269.343s-39.719-197.973-111.709-269.343zM981.178 477.789h-104.882v91.229c0 14.895-11.792 26.686-26.686 26.686s-26.686-11.792-26.686-26.686v-91.85h-91.85c-14.895 0-26.686-11.792-26.686-26.686s11.792-26.686 26.686-26.686h91.85v-91.85c0-14.895 11.792-26.686 26.686-26.686s26.686 11.792 26.686 26.686v91.85h104.882c14.895 0 26.686 11.792 26.686 26.686s-11.792 27.307-26.686 27.307z" />
<glyph unicode="&#xe625;" glyph-name="geoloc" horiz-adv-x="1738" d="M865.125 925.867h-4.344c-261.896 0-477.246-213.488-479.108-475.384-1.241-127.845 47.787-248.863 137.775-340.092s209.765-142.119 337.61-143.36h4.344c261.896 0 477.246 213.488 479.108 475.384 2.482 264.378-211.006 480.97-475.384 483.452zM861.401 16.679h-3.724c-114.812 1.241-222.177 46.545-302.856 128.465s-124.121 189.905-123.501 304.718c1.862 235.21 194.87 426.356 429.459 426.356h3.724c237.072-1.862 428.218-196.112 426.356-433.183-1.862-235.21-194.87-426.356-429.459-426.356zM1064.339 679.486l-286.099-137.154c-4.965-2.482-9.309-6.206-11.792-11.171l-141.498-283.617c-4.965-9.309-3.103-21.101 4.344-28.548 4.965-4.965 11.171-7.447 17.998-7.447 3.724 0 7.447 0.621 10.55 2.482l286.099 137.154c4.965 2.482 9.309 6.206 11.792 11.171l141.498 284.238c4.965 9.309 3.103 21.101-4.344 28.548s-19.239 8.688-28.548 4.344zM914.773 391.525l-212.868-101.779 105.503 211.627 213.488 102.4-106.124-212.247z" />
<glyph unicode="&#xe626;" glyph-name="minus" d="M0 544v-192c0-17.672 14.328-32 32-32h960c17.672 0 32 14.328 32 32v192c0 17.672-14.328 32-32 32h-960c-17.672 0-32-14.328-32-32z" />
<glyph unicode="&#xe627;" glyph-name="plus" d="M992 576h-352v352c0 17.672-14.328 32-32 32h-192c-17.672 0-32-14.328-32-32v-352h-352c-17.672 0-32-14.328-32-32v-192c0-17.672 14.328-32 32-32h352v-352c0-17.672 14.328-32 32-32h192c17.672 0 32 14.328 32 32v352h352c17.672 0 32 14.328 32 32v192c0 17.672-14.328 32-32 32z" />
<glyph unicode="&#xe628;" glyph-name="up" horiz-adv-x="1738" d="M846.038 682.438l-440.010-438.768c-4.965-4.344-7.447-10.55-7.447-17.377s2.482-13.033 7.447-17.377 11.171-7.447 17.377-7.447 12.412 2.482 17.377 7.447l422.633 420.771 422.633-420.771c4.965-4.965 11.171-7.447 17.377-7.447s12.412 2.482 17.377 7.447c4.965 4.965 6.827 10.55 6.827 17.998 0 6.206-3.103 12.412-5.585 16.136l-0.621 0.621-441.251 439.389c-8.688 8.688-24.204 8.688-34.133-0.621z" />
<glyph unicode="&#xe629;" glyph-name="pinterest" d="M512.006 959.998c-282.774 0-512.006-229.23-512.006-511.996 0-216.906 134.952-402.166 325.414-476.772-4.478 40.508-8.518 102.644 1.774 146.876 9.298 39.954 60.040 254.5 60.040 254.5s-15.32 30.664-15.32 76.008c0 71.19 41.268 124.336 92.644 124.336 43.68 0 64.784-32.794 64.784-72.12 0-43.928-27.964-109.604-42.404-170.464-12.060-50.972 25.556-92.536 75.814-92.536 91.008 0 160.958 95.96 160.958 234.466 0 122.584-88.088 208.298-213.868 208.298-145.678 0-231.186-109.274-231.186-222.19 0-44.008 16.95-91.196 38.102-116.844 4.182-5.070 4.792-9.516 3.548-14.68-3.884-16.18-12.522-50.96-14.216-58.076-2.234-9.368-7.422-11.356-17.124-6.842-63.95 29.77-103.926 123.264-103.926 198.348 0 161.51 117.348 309.834 338.294 309.834 177.61 0 315.634-126.56 315.634-295.704 0-176.458-111.256-318.466-265.676-318.466-51.886 0-100.652 26.958-117.35 58.796 0 0-25.672-97.766-31.894-121.71-11.564-44.468-42.768-100.218-63.642-134.226 47.91-14.832 98.818-22.832 151.604-22.832 282.768 0.002 511.996 229.23 511.996 512 0 282.766-229.228 511.996-511.994 511.996z" />
<glyph unicode="&#xe62a;" glyph-name="doc" horiz-adv-x="799" d="M610.918 863.744h-569.242v-853.811h715.264v707.789l-146.022 146.022zM618.394 820.531l93.901-93.901h-93.901v93.901zM67.072 36.762v801.69h526.029v-138.547h138.547v-664.576h-664.576v1.434zM259.686 493.875c18.534-16.794 27.75-40.141 27.75-69.939 0-29.901-9.011-53.555-26.931-70.963s-45.466-26.112-82.432-26.112h-63.795v192.205h65.946c34.509 0 60.928-8.397 79.462-25.19zM254.771 423.117c0 44.032-25.19 65.946-75.571 65.946h-32.461v-131.686h36.045c23.245 0 41.062 5.53 53.453 16.589 12.39 11.162 18.534 27.546 18.534 49.152zM481.792 353.382c-19.456-18.944-43.418-28.467-71.987-28.467s-52.634 9.523-71.987 28.467c-19.456 18.944-29.184 42.598-29.184 70.963s9.728 51.917 29.184 70.963c19.456 18.944 43.418 28.467 71.987 28.467s52.634-9.523 71.987-28.467c19.456-18.944 29.184-42.598 29.184-70.963s-9.728-51.917-29.184-70.963zM458.035 473.702c-13.107 13.517-29.184 20.378-48.23 20.378s-35.123-6.758-48.23-20.378c-13.107-13.517-19.661-30.003-19.661-49.357s6.554-35.738 19.661-49.357c13.107-13.517 29.184-20.378 48.23-20.378s35.123 6.758 48.23 20.378c13.107 13.517 19.661 30.003 19.661 49.357s-6.554 35.738-19.661 49.357zM631.398 356.352c11.162 0 20.787 1.843 28.877 5.632s16.486 9.728 25.293 18.022l20.89-21.402c-20.378-22.528-45.056-33.792-74.035-33.792-29.082 0-53.146 9.318-72.294 28.058s-28.774 42.291-28.774 70.963c0 28.57 9.728 52.429 29.286 71.475s44.134 28.57 73.933 28.57c29.798 0 54.682-10.957 74.65-32.973l-20.582-22.528c-9.216 8.806-17.818 14.95-26.010 18.432s-17.715 5.222-28.774 5.222c-19.456 0-35.738-6.246-48.947-18.842s-19.763-28.57-19.763-48.128c0-19.558 6.554-35.84 19.661-48.947 13.107-13.312 28.57-19.763 46.592-19.763z" />
<glyph unicode="&#xe62b;" glyph-name="xls" horiz-adv-x="799" d="M609.485 863.744h-569.242v-853.811h715.264v707.789l-146.022 146.022zM616.96 820.531l93.901-93.901h-93.901v93.901zM65.536 36.762v801.69h526.029v-138.547h138.547v-664.576h-664.576v1.434zM282.317 326.861l-47.309 72.294h-1.331l-47.309-72.294h-40.448l65.946 98.714-61.338 93.491h40.141l42.906-64.922h1.331l42.906 64.922h40.141l-61.338-93.491 65.946-98.714h-40.243zM353.485 326.861v192.205h32.461v-161.382h87.654v-30.822h-120.115zM567.194 493.773c-9.421 0-17.203-1.946-23.245-5.734-6.042-3.891-9.114-9.626-9.114-17.408s3.072-13.722 9.114-17.818c6.042-4.096 18.944-8.602 38.605-13.312 19.661-4.813 34.509-11.469 44.544-20.070s14.95-21.299 14.95-38.093-6.349-30.413-18.944-40.858-29.184-15.667-49.766-15.667c-30.106 0-56.73 10.342-79.974 31.027l20.378 24.474c19.456-16.896 39.629-25.293 60.518-25.293 10.445 0 18.739 2.253 24.883 6.758s9.216 10.445 9.216 17.92c0 7.373-2.867 13.21-8.704 17.306s-15.667 7.885-29.798 11.264c-14.131 3.379-24.883 6.554-32.154 9.318-7.373 2.867-13.824 6.554-19.558 11.162-11.366 8.602-16.998 21.811-16.998 39.629s6.451 31.437 19.354 41.062 28.877 14.438 47.923 14.438c12.288 0 24.474-2.048 36.557-6.042s22.528-9.728 31.334-16.998l-17.306-24.474c-5.632 5.12-13.414 9.318-23.040 12.595-9.728 3.174-19.354 4.813-28.774 4.813z" />
<glyph unicode="&#xe62c;" glyph-name="zip" horiz-adv-x="799" d="M610.918 863.744h-569.242v-853.811h715.264v707.789l-146.022 146.022zM618.394 820.531l93.901-93.901h-93.901v93.901zM67.072 36.762v801.69h526.029v-138.547h138.547v-664.576h-664.576v1.434zM293.786 489.37h-108.339v29.696h153.395v-25.293l-111.514-136.090v-0.819h113.254v-30.003h-158.618v24.986l111.923 136.602v0.922zM381.235 519.066h32.461v-192.102h-32.461v192.102zM596.685 502.272c13.414-11.162 20.070-28.365 20.070-51.712 0-23.245-6.861-40.346-20.48-51.098-13.619-10.854-34.509-16.179-62.771-16.179h-34.099v-56.32h-32.461v192.102h65.946c29.184 0 50.483-5.632 63.795-16.794zM573.747 422.912c6.554 6.861 9.728 16.998 9.728 30.208 0 13.312-4.096 22.63-12.39 28.16s-21.197 8.294-38.81 8.294h-32.973v-77.005h37.683c18.022 0.102 30.31 3.482 36.762 10.342z" />
<glyph unicode="&#xe900;" glyph-name="afrique-01" horiz-adv-x="930" d="M379.625 893.156c-4.877-2.726-12.048-3.012-15.632-0.717-0.86 0.573-2.151 0.144-2.726-0.717-0.717-1.291-2.008-1.291-5.019 0.144-3.155 1.435-4.159 1.435-4.732 0-0.287-0.86-1.577-1.722-3.012-1.722-1.291 0-3.299-0.86-4.159-1.722-1.435-1.435-2.437-1.435-4.59 0-3.872 2.295-7.887 2.151-27.25-1.004-16.207-2.726-25.816-6.023-25.816-9.036 0-0.717-1.004-1.147-2.151-0.717-1.147 0.573-2.437 0.287-2.868-0.431-0.573-0.86-1.864-1.435-3.012-1.435s-3.728-1.577-5.737-3.586c-2.008-2.008-4.303-3.586-5.307-3.728-3.586-0.287-8.892 0.431-10.040 1.435-0.573 0.573-4.732 0.573-9.322 0-9.036-1.291-14.342 0.86-15.632 6.023-0.86 2.868-2.868 3.442-5.594 1.577-0.86-0.573-3.155-4.59-5.019-8.892-4.877-11.617-8.176-15.49-17.067-19.649-8.605-4.159-17.21-11.76-17.21-15.346 0-1.291-1.435-4.446-3.155-6.741-2.582-3.442-3.299-6.31-3.299-13.482 0-5.45-0.717-9.896-1.722-10.9s-1.864-2.582-1.864-3.442c0-0.717-2.295-3.442-5.163-5.737-2.868-2.437-6.454-5.45-8.032-6.885-3.299-3.012-11.473-6.741-14.772-6.741-3.155 0-5.163-2.295-8.892-10.327-1.864-3.872-3.872-6.885-4.446-6.885-3.872 0-11.76-11.76-11.76-17.641 0-3.442-3.728-9.178-9.467-14.63-1.722-1.577-4.59-6.741-6.454-11.473-1.722-4.732-4.303-9.467-5.737-10.327-1.291-1.004-2.868-4.159-3.442-7.172-0.431-3.012-1.291-7.027-1.722-8.892-0.573-2.437-0.287-3.155 1.147-2.726 1.004 0.287 3.442-1.004 5.163-2.868 3.299-3.586 4.303-7.458 2.008-7.458-2.437 0-3.155-7.172-0.86-10.469 3.012-4.303 2.726-16.637-0.717-25.386-1.577-4.017-2.868-8.892-2.868-11.044 0-4.303-7.027-16.207-9.609-16.207-1.004 0-1.864-0.573-1.864-1.435 0-0.717 1.004-1.435 2.151-1.435 1.291 0 2.868-1.722 3.728-3.872 0.86-2.295 2.151-5.163 2.868-6.454 0.717-1.435 0.717-2.726-0.144-3.299-0.86-0.431-1.435-3.872-1.435-7.601 0.144-5.594 0.86-7.458 4.303-10.9 4.732-4.59 5.594-7.027 2.008-5.594-1.864 0.717-2.151 0.287-1.291-2.582 1.577-5.019 2.582-5.594 5.737-3.155 2.008 1.577 2.295 2.437 1.147 2.868-2.151 0.717-2.582 4.732-0.573 4.732 0.717 0 2.008-1.864 2.868-4.303 0.717-2.295 2.151-4.303 2.868-4.303 0.86 0 1.577-1.004 1.577-2.151s1.004-2.151 2.151-2.151c1.147 0 2.151-0.431 2.151-1.147 0-0.573 3.299-4.446 7.172-8.749 4.59-5.019 7.172-9.036 7.314-11.473 0.144-6.023 1.004-9.178 2.868-10.182 0.86-0.573 1.147-1.864 0.717-2.726-0.573-0.86-0.431-1.577 0.431-1.577s1.147-0.86 0.86-1.722c-0.431-1.147 1.722-2.868 5.306-4.446 6.023-2.437 11.044-6.454 28.254-21.944 17.354-15.632 21.657-16.923 34.708-10.613 13.768 6.597 35.426 7.172 47.472 1.291 1.577-0.717 4.017-0.431 6.454 0.86 13.195 6.597 23.091 10.757 25.959 10.757 1.722 0 3.586 1.004 4.017 2.008 1.004 2.726 12.622 5.163 25.959 5.45 8.462 0.287 10.757-0.144 13.339-2.437 3.586-3.299 8.605-12.477 8.605-15.632 0-1.147 1.435-3.586 3.299-5.163 2.437-2.437 4.303-2.868 8.176-2.151 2.726 0.431 7.601 1.147 10.757 1.435 3.155 0.431 7.745 0.86 10.327 1.147 3.728 0.573 4.732 0 5.306-2.726 0.431-1.722 2.151-3.728 3.728-4.159s2.868-1.722 2.868-2.726c0-1.147 0.86-2.726 2.008-3.586 2.726-2.295 1.435-16.207-2.151-23.377-1.864-3.586-2.151-5.45-1.004-5.737 1.004-0.431 1.291-1.577 0.431-3.442-0.573-1.435-1.435-5.594-1.722-9.178-0.717-6.167-2.582-9.178-5.019-7.745-1.864 1.147-1.291-2.868 0.86-7.458 1.147-2.295 3.155-6.741 4.59-9.896s5.019-8.032 7.745-10.757c10.182-9.896 22.948-28.827 22.948-34.135 0-1.722 0.717-3.442 1.435-3.872 0.86-0.573 1.147-1.435 0.717-2.151s0.717-4.732 2.726-8.892c1.864-4.159 4.59-11.044 6.167-15.203 2.582-7.458 2.582-7.745-0.144-9.609-2.582-2.008-2.582-2.437 2.008-13.912 3.155-8.032 4.59-14.055 4.446-18.358-0.287-7.458-2.582-14.342-5.019-14.342-2.726-0.144-9.322-12.048-10.327-18.789-1.147-8.605-4.877-21.371-6.023-21.371-1.864 0-1.004-26.39 1.004-31.122 1.004-2.582 2.437-4.732 2.868-4.732 1.435 0 7.601-12.764 13.768-27.967 1.291-3.155 4.017-8.605 6.167-12.191 3.012-5.163 3.872-8.462 4.017-16.494 0.144-5.45 0.86-13.195 1.722-17.21 0.86-3.872 2.582-12.908 3.872-19.936 2.726-14.772 4.732-19.362 12.191-27.536 3.442-3.728 6.454-9.322 8.605-15.777 3.442-10.613 8.176-20.94 10.182-22.231 0.717-0.431 1.722-3.728 2.151-7.458 0.86-5.594 0.573-6.741-1.291-6.741-1.147 0-2.437-0.86-2.868-1.722-0.573-2.008 1.722-6.885 3.872-8.462 0.717-0.573 1.004-2.582 0.573-4.59-1.004-4.877 1.147-8.318 3.155-5.307 0.86 1.435 1.435 1.577 1.435 0.431 0-1.004 0.86-1.864 1.864-1.864 1.147 0 3.155-1.291 4.59-2.868 3.155-3.586 6.023-3.586 9.609-0.431 1.722 1.577 4.877 2.437 8.605 2.295 3.299-0.144 7.314 0.717 9.322 2.008 4.159 2.726 14.486 3.442 22.373 1.577 3.728-0.86 6.167-0.86 7.458 0.287 1.147 0.86 3.442 1.435 5.306 1.147s3.155 0.287 3.012 1.147c-0.144 1.004 2.437 2.008 5.881 2.295 7.601 0.86 22.087 10.327 30.262 19.505 1.577 1.864 5.307 5.737 8.462 8.605 5.307 5.163 15.203 19.218 15.203 21.657 0 1.864 9.609 11.617 11.473 11.617 1.577 0 4.159 5.307 7.745 16.494 2.582 8.032 3.155 18.645 0.86 17.21-2.582-1.577-1.435 1.864 1.864 5.737 1.722 2.008 7.745 5.45 13.195 7.745 7.314 2.868 10.9 5.307 13.339 8.749 2.008 3.012 2.726 5.307 1.864 6.167-0.86 0.86-0.86 2.726 0.144 5.163 1.864 4.59 1.577 16.063-0.287 17.927-0.86 0.86-1.435 2.151-1.435 2.868 0 0.86 0.717 0.573 1.435-0.573 1.147-1.722 1.435-1.577 1.435 1.147 0 1.722-0.717 3.012-1.722 2.868-1.004-0.287-1.722 1.577-1.864 4.59-0.144 2.726-1.004 5.163-2.008 5.45-0.86 0.287-1.577 2.008-1.577 3.728 0 3.728 12.908 18.072 16.35 18.072 1.291 0 2.295 0.573 2.295 1.147s1.147 2.726 2.582 4.59c5.163 7.027 10.469 11.187 18.501 14.486 4.59 1.722 8.605 3.728 9.036 4.159 0.431 0.573 1.722 1.577 3.012 2.295 3.728 2.008 13.339 15.059 15.346 20.94 1.435 4.159 1.435 6.741 0.287 11.473-1.004 3.442-1.577 14.199-1.435 24.812 0.431 23.952 0.573 22.948-3.299 24.668-2.726 1.291-4.017 3.728-5.737 11.473-3.155 12.477-3.012 14.342 0.431 15.203 1.577 0.431 2.868 1.577 2.868 2.437 0 1.004-1.004 1.435-2.151 0.86-2.868-1.004-4.59 3.012-2.582 6.167 1.147 1.864 0.573 3.586-2.582 7.458-2.295 2.582-4.159 5.881-4.159 7.027 0 3.012 4.732 16.35 6.167 17.354s8.032 16.207 9.178 21.082c0.431 1.722 2.151 3.872 3.728 4.732 4.446 2.437 11.904 10.469 14.772 15.777 6.167 12.191 25.53 32.986 37.29 40.445 7.745 4.877 30.549 29.831 30.693 33.561 0 0.573 2.295 4.732 5.019 9.036 2.726 4.303 5.019 8.892 5.019 10.327 0 2.868 8.749 21.657 10.469 22.373 0.573 0.287 1.004 1.147 1.004 2.008 0 0.717 1.577 4.59 3.586 8.605 2.008 3.872 3.586 9.322 3.586 12.191 0 3.728 0.717 5.163 2.868 5.737 3.012 0.86 3.872 2.726 1.435 3.586-1.291 0.431-2.008 8.032-1.147 13.195 0.717 4.017-5.307 5.737-8.462 2.437-3.155-3.155-15.49-7.458-18.501-6.31-1.147 0.431-3.728 0-5.594-1.004-1.864-1.004-4.877-1.435-6.597-1.004-1.864 0.573-4.59-0.287-7.027-2.151-2.868-2.008-5.45-2.726-8.749-2.295-3.155 0.431-6.31-0.144-9.178-1.864-7.458-4.59-12.908-2.726-18.645 6.31-1.435 2.151-4.017 4.303-6.023 4.732l-3.442 0.86 3.299 1.722c5.45 2.726 4.877 6.885-2.008 14.055-3.442 3.586-7.172 7.887-8.318 9.609-1.147 1.577-2.726 3.012-3.586 3.012-0.717 0-2.582 2.008-3.872 4.303-1.435 2.437-3.586 4.732-5.019 5.306-1.435 0.573-3.442 1.864-4.446 2.868-1.004 0.86-2.726 1.435-3.728 1.004-1.291-0.431-2.151 0.573-2.582 2.868-0.573 2.582-0.144 3.728 1.291 3.728 1.722 0 1.722 0.287-0.144 2.151-2.726 2.868-3.299 2.726-4.303-1.004-0.86-3.299-1.004-3.299-3.012-0.431-1.291 1.577-2.868 5.45-3.586 8.605-4.017 16.494-6.023 20.653-13.051 26.103-8.032 6.31-10.040 10.9-10.469 24.812-0.287 5.45-1.291 10.9-2.151 12.048-1.004 1.291-2.008 3.872-2.151 5.881 0 2.008-0.431 3.586-0.86 3.586-0.431 0-3.442 2.437-6.885 5.45-6.741 6.023-10.757 16.063-6.31 16.063 1.577 0 1.147 1.004-1.577 3.442-2.008 1.864-5.45 7.172-7.887 11.76-2.295 4.732-5.594 10.9-7.314 13.912-1.577 3.012-3.012 6.167-3.012 7.172s-1.147 3.442-2.437 5.306c-1.435 2.008-2.726 4.732-2.868 6.167-0.287 1.577-2.726 5.306-5.45 8.605-2.726 3.155-5.019 7.314-5.019 9.036 0 1.864-0.573 3.586-1.291 4.159-0.86 0.431-1.864 5.306-2.437 10.757-0.431 5.45-1.722 11.044-2.726 12.477-3.728 5.019-20.796 3.299-27.107-2.726-1.722-1.577-4.159-2.437-5.881-2.008-1.577 0.287-5.737 1.435-9.322 2.151-3.586 0.86-7.745 2.151-9.322 2.868-5.163 2.295-14.772 4.159-18.358 3.442-2.726-0.573-3.872 0-4.59 2.295s-2.151 3.012-5.45 3.012c-7.745 0-14.917 2.726-15.777 5.737-0.431 1.722-2.008 2.868-3.586 2.868-1.722 0-3.442 0.717-3.872 1.435-2.151 3.442-15.777 0.287-22.231-5.163-4.446-3.872-5.737-10.327-3.012-14.772 2.295-3.728-3.442-11.473-8.605-11.617-1.147 0-4.732 1.864-7.887 4.017-5.881 4.303-14.917 7.458-20.796 7.458-5.019 0-9.467 3.586-10.613 8.749-0.717 2.868-2.295 4.877-4.732 5.881-2.151 0.86-5.737 2.437-8.032 3.728-2.582 1.291-7.458 2.151-11.76 2.008-4.732-0.144-9.467 0.86-13.339 2.582-5.737 2.868-9.609 7.314-7.745 9.178 0.431 0.431-0.144 0.86-1.435 0.86s-2.437-0.573-2.437-1.435c0-2.437-4.159-1.577-5.737 1.291-1.147 2.295-0.573 3.442 2.868 6.454 2.437 2.008 5.306 3.299 6.454 2.868 1.147-0.573 2.151-0.144 2.151 0.86 0 0.86-0.717 1.147-1.435 0.717-1.004-0.573-1.147 1.004-0.573 4.732 0.717 4.877 0.431 6.023-2.151 7.314-3.586 2.008-3.872 5.163-0.717 8.318 1.147 1.291 1.864 3.155 1.435 4.303-0.431 1.147-0.144 1.577 0.573 1.147 0.86-0.431 1.435-0.287 1.435 0.431 0 2.726-2.008 3.012-4.59 0.717s-2.726-2.295-3.442 0.573c-0.717 2.437-4.159 4.59-7.745 4.732-0.431 0-3.155-1.291-6.023-2.726zM653.275 430.044c1.147-1.577 1.291-3.012 0.287-4.159-0.717-1.004-1.004-2.295-0.573-3.012 0.86-1.577-2.151-8.892-3.728-8.892-0.717 0-1.147-0.717-1.147-1.577 0-1.004-1.147-2.582-2.437-3.586-2.437-1.864-2.437-2.151 0-4.017 3.586-2.868 1.435-3.728-6.167-2.295-3.872 0.717-7.172 0.573-8.176-0.144-2.726-2.295-3.442 0.86-2.582 11.187 1.435 15.346 1.577 15.777 7.458 17.641 3.012 1.004 6.023 2.295 6.741 2.868 1.577 1.577 8.032-0.86 10.327-4.017zM603.65 374.97c0-2.151 0.717-4.303 1.577-4.732 0.86-0.573 1.147-2.008 0.717-3.155s-0.144-3.442 0.717-5.163c1.291-2.295 1.291-3.155 0-3.586-2.868-1.004-1.722-6.023 1.864-7.314 3.442-1.435 5.163-4.303 5.163-8.892 0-1.577 1.577-6.023 3.586-9.896 4.446-8.749 4.446-8.892 0-6.885-2.295 1.004-3.442 2.437-2.868 3.728 0.431 1.004-0.287 3.299-1.435 5.019-1.147 1.722-2.151 4.017-2.151 5.019 0 1.147-1.864 4.303-4.303 7.027-2.295 2.582-4.446 5.881-4.59 7.314 0 1.291-0.287 4.446-0.573 6.741-0.287 2.437-0.717 9.467-1.004 15.777-0.431 10.327-0.287 11.044 1.291 7.172 1.004-2.295 1.864-6.023 2.008-8.176zM655.282 309.282c0.86-1.577 1.722-5.881 2.008-9.322 0.144-3.586 1.147-7.314 2.008-8.176 2.151-2.151 2.295-7.887 0.287-9.036-2.008-1.291-0.86-21.227 1.291-21.944 0.86-0.287 1.577-1.147 1.577-1.864 0-0.86-0.573-1.004-1.435-0.573-0.717 0.431-1.435 0.144-1.435-0.573 0-0.86-0.717-1.577-1.577-1.577s-1.147 1.291-0.573 2.868c0.573 1.722 0.287 3.728-0.431 4.732-1.435 1.864-3.586 12.908-3.299 17.498 1.004 17.067 0.717 21.944-0.86 25.099-1.004 2.008-1.864 4.017-1.864 4.732 0 2.151 2.868 0.86 4.303-1.864zM814.482 280.31c-1.147-1.864-2.151-5.45-2.437-8.176-0.431-6.023-1.291-6.885-4.732-4.732-2.295 1.435-2.868 1.435-2.868-0.287 0-1.147 0.86-2.437 1.864-2.868 0.86-0.431 0.287-0.431-1.435 0-3.299 0.717-3.872-0.144-3.442-5.45 0.144-1.291-0.431-2.726-1.291-3.299-0.717-0.431-1.435-2.151-1.435-3.586 0-1.864-0.717-2.437-2.151-2.008-1.291 0.573-2.151 0-2.151-1.291 0-2.868-10.182-10.040-17.927-12.622-3.155-1.004-6.31-2.437-7.027-3.012-0.86-0.573-2.868-1.147-4.732-1.147-2.582 0-3.299-0.717-3.299-3.872 0-2.295-1.291-5.881-2.726-8.176-2.868-4.303-2.868-7.745 0-24.239 1.722-9.609 1.722-9.896-2.437-17.927-2.295-4.446-4.732-8.605-5.306-9.036-5.019-3.586-6.885-16.637-3.299-23.377 1.147-2.295 1.722-6.31 1.291-10.040-0.431-3.728-0.144-6.597 0.86-7.172 0.86-0.573 1.577-2.151 1.577-3.586 0-3.155 4.303-7.314 7.601-7.314 1.291 0 2.437-0.573 2.437-1.435 0-2.151 7.458-1.577 10.613 0.717 1.577 1.147 4.59 2.151 6.741 2.151 4.303 0 9.896 5.737 9.896 9.896 0 1.291 0.86 3.586 2.008 5.163 1.004 1.577 2.726 6.454 3.728 10.757 1.147 4.303 3.155 10.182 4.446 13.051 1.435 2.868 3.442 8.318 4.303 12.191 1.004 3.872 4.159 13.195 7.172 20.94 3.012 7.601 5.881 16.35 6.31 19.362 1.722 10.327 2.151 11.904 4.017 11.473 1.722-0.287 1.864 1.004 0.144 11.904l-1.004 6.454 2.868-3.442 2.868-3.586 2.437 4.59c1.722 3.442 2.008 5.306 0.86 7.314-0.717 1.577-1.435 5.737-1.435 9.178s-0.717 8.462-1.577 11.187c-2.008 6.31-7.601 18.358-8.462 18.501-0.431 0-1.722-1.435-2.868-3.155z" />
<glyph unicode="&#xe901;" glyph-name="amerique-01" horiz-adv-x="930" d="M510.601 483.636c2.406 0.994-1.41-0.499 0 0zM544.441 59.806c0.075-0.199 0.159-0.187 0.247-0.017l-0.247 0.017zM554.228 74.652l-0.008 0.051-0.080-0.187 0.088 0.136zM689.92 228.508l-0.091 0.139-1.009-0.361c0.59-0.893 0.958-0.829 1.1 0.222zM684.861 377.387c-8.689 2.996-10.4 11.283-22.892 13.271-2.239 0.331-5.142-1.659-6.138-4.313-1.544-4.051 2.95 6.718-2.156 7.465-10.857 1.889-3.392 8.898-7.796 14.598-1.079 1.327-2.406 2.489-2.82 2.489 2.621-0.219-12.661 22.106-16.589 24.136-14.955 7.73-22.685 1.528-34.337 15.51-0.151 0.182-14.651 13.447-13.934 13.105-3.054 1.175-8.358 2.847-9.041 4.893 0.449 1.604 1.611 2.461 3.483 2.572 0.141 0.124-13.854-0.901-17.417-2.82-2.893-1.543-17.157 2.819-22.062 2.239v2.156c0 1.060-11.102 9.936-11.279 9.869-0.583-2.462-1.717-4.646-3.4-6.552-2.017-1.47-4.229-2.328-6.635-2.572 0.34 1.017 3.851 7.689 3.899 8.626 0 1.659-2.737 2.572-5.142 1.576-4.792-1.692-10.92-11.028-17.583-9.124 1.964-0.479-16.355-17.374-15.675-19.409-1.259 2.832-11.064 8.958-13.934 8.958-2.812 0 3.254-10.547 5.307-9.372-3.685-1.843 2.708-9.11 3.317-10.534 9.984-23.531-28.044-45.683-22.227-57.312 3.074-4.729 4.431-10.32 6.635-12.524 1.012-1.012-8.92-9.762-8.293-13.52 2.268-16.637 20.060-34.599 28.615-51.091 11.584-22.333 31.445-26.483 44.939-45.048 11.284-15.525 6.86-50.846 7.757-69.705 0.52-10.931 3.491-21.424 4.534-31.971 1.022-10.351-4.966-28.678-2.903-36.246 2.398-12.791 7.733-25.515 10.037-38.567 0.913-4.893 3.566-6.386 5.307-3.069 0.212 0.355-1.395 9.624-1.162 9.538 0.428-0.179 10.641-16.656 5.723-18.413-0.913-0.331-1.907-0.747-2.156-0.83-0.249-0.166-0.414 0.747-0.249 1.99 1.077 9.697-5.619-2.481-5.475-2.239-0.996-1.99-1.079-3.483-0.083-1.824 3.841 6.204 2.539-11.828 1.657-13.535 1.279-0.131 7.414-0.978 7.549-0.896 1.493 0.746-0.36-10.877-2.655-9.041 2.457-2.457 6.401-17.999 9.372-17.999 0.414-0.083 1.244-0.166 1.824-0.249 1.021-1.858 1.74-3.819 2.156-5.889-0.694-4.162 12.524-4.573 12.524-7.962-1.372-1.1-2.892-0.935-4.562 0.497-1.079 0.414-0.747-0.249 1.162-1.99 0.949-0.91 6.167-1.029 5.307-3.069-0.249-0.663-0.166-1.162 0.249-1.079 0.040 0.010 9.269-5.009 8.045-2.073-0.075 0.225-2.631 6.457 0.663 0.166 1.942-3.606 1.372-2.537 4.727-5.475 3.93-3.698 24.226-4.964 23.888-4.727-3.1 2.519 8.605-1.075 7.465 1.659-0.154 0.464 2.674 2.973 3.566 3.592-0.608-0.847 1.742-5.493 1.742-0.691 0 0.24-26.085 14.239-29.232 21.218-3.309 7.339 6.285 24.89 5.427 26.391-0.331 0.497-0.747 1.659-0.83 2.489-0.809 5.009-11.2 4.408-13.437 8.709-3.405 6.070 8.858 9.525 7.299 10.534-0.028 0.018-0.722 7.337-1.493 8.875 2.731 1.375 8.471 5.173 6.552 8.875-0.973 1.73-6.275 1.147-8.128 0.663-0.555 1.072-4.058 8.976-3.317 9.124 4.38-1.365 8.885-1.808 13.52-1.327 2.085 0.882 1.471 12.864 0 13.437 5.597-2.152 21.889 4.095 24.841 9.745 7.205 13.791-9.954 14.454-11.902 25.172-0.249 1.576-0.249 1.576 1.327 0.249 2.877-2.615 13.228-4.302 16.423-4.396 6.885-0.331 9.954 1.493 10.865 6.138 0.903 3.841 11.646 16.766 10.534 19.657-0.219 0.547-3.692-3.939-4.81-2.82-3.186 2.124 4.229 6.375 6.718 5.307 3.279-1.094 16.26 38.017 9.372 39.895 0.134-0.033 18.255 14.695 17.003 12.607 0.94 1.453 2.491 2.431 4.375 3.178l-0.144 0.222c0.146 1.082 0.534 1.12 1.153 0.139 5.863 1.978 14.249 2.26 18.421 6.744 7.21 7.75 9.881 24.824 11.238 35.426 1.577 12.313 0.096 21.873 4.386 32.471 4.318 10.668 14.265 17.977 18.299 28.396 13.313 34.735-36.741 39.275-57.313 45.704zM514.050 463.949c-1.533-5.124-2.903-5.394-4.113-0.8-0.913 2.82-0.829 3.4 0.497 4.976l1.493 1.742c1.15-1.685 1.849-3.558 2.121-5.606l0.035-0.199c0.002-1.162-0.027-0.575-0.033-0.113zM530.673 279.102c-0.58-0.996-0.83-0.913-1.327 0.249-1.133 0.911-2.156 1.935-3.069 3.069-0.537 2.070 0.847 2.060 2.827 0.217-0.371 0.401-0.548 0.611 0.49-0.467l0.201-0.257c0.986-1.193 1.342-2.116 0.878-2.81zM551.575 71.334c-0.57 2.658-0.21 2.769 1.079 0.331 0.829-2.487-0.002-2.736-1.079-0.331zM552.985 73.906c0.593 2.398 1.004 2.658 1.236 0.797l0.008-0.051-0.088-0.136c-0.328-0.562-0.775-0.838-1.157-0.61zM555.141 68.1c-3.443-1.291 1.244 2.946 1.244 0.829 0-0.164-0.58-0.497-1.244-0.829zM592.88 18.253c0.497-0.249 0.83-1.244 0.83-2.073 2.408-0.467 4.123-1.655 5.142-3.566-0.996-0.58-1.576-1.41-1.244-1.907-1.092 1.092-3.672 1.203-4.396 2.572-1.327 2.651-1.576 5.72-0.331 4.974zM588.318 16.261c-1.829-1.46-2.355-1.377-1.576 0.249 1.742 1.244 2.487 1.162 1.576-0.249zM658.983 174.431c-0.249-0.663-0.497-0.414-0.497 0.497-0.083 0.913 0.166 1.41 0.414 1.079 0.249-0.249 0.331-0.996 0.083-1.576zM514.050 463.949l0.035 0.113-0.035 0.199v-0.312zM529.796 281.914l-0.201 0.257-0.49 0.467 0.691-0.724zM657.905 27.044c-1.601 1.423-10.308 2.494-12.993 1.712l-0.196-0.053c-0.913-0.414-2.239-0.497-2.903-0.249 2.558-0.853-3.066-3.952 0.747-6.055 1.916-0.991 6.332 1.115 7.134 3.317-2.134-5.69 0.134-5.544 5.641-2.156 3.566 2.075 3.814 2.406 2.57 3.483zM583.174 929.362c1.244 2.406 1.244 2.489-1.327 3.649-4.191 1.862-9.284 2.969-13.851 2.239 0.524 0.063-8.169-3.858-6.635-5.392 2.277-2.275 20.469-3.297 21.813-0.495zM567.996 935.251c2.075 0.331-2.073-0.249 0 0zM528.352 924.717c3.241 0.318 12.343 3.443 15.593 5.475 1.079 0.747 1.079 0.913 0 1.659-1.493 0.913-2.655 0.913-10.534-0.331l-6.262-1.452c1.568-0.676 3.203-1.094 4.901-1.283-2.787-0.133-11.115-2.877-10.499-1.911-1.163-1.909 1.326-2.739 6.8-2.157zM533.41 931.517c7.879 1.244-6.469-0.994 0 0zM499.571 919.408l-0.010 0.012-0.018-0.036 0.028 0.025zM469.794 916.755c1.246 0.234 10.114-1.418 10.699-0.996-1.576-1.244-1.576-1.244 0.58-1.327-0.452 0 11.1 2.665 4.23-0.083-1.99-0.747-2.156-0.996-0.913-1.659 12.633-7.019 39.174-5.268 51.921 1.41 5.142 2.655 4.645 4.065-1.162 3.732l-3.899-0.166 1.327 1.99c4.403 7.042-1.735 2.111-0.996 1.742-4.424 2.95-11.642-5.034-9.372-5.558-3.14 1.047-20.506 4.918-18.496 5.723 0.305 0.126 5.723 3.556 5.723 3.235 0.075 0.978-2.588 1.135-9.014 0.661 0.86 0.076 0.833 0.080-2.099-0.164-1.778-0.162-1.558-0.147-0.726-0.080-8.822-0.87-18.999-3.095-27.392-5.892-3.148-1.158-3.564-3.15-0.413-2.568zM496.502 911.197c-2.572 0.083-2.655 0.083-0.663 0.747 1.286 1.191 2.254 1.191 2.903 0 0.33-0.499-0.582-0.83-2.24-0.747zM499.559 919.419l0.010-0.012-0.030-0.025c-1.243-1.143-2.338-1.137-3.288 0.025 1.251 1.168 2.353 1.17 3.307 0.012zM487.544 918.828c3.114 0.716 6.126 0.328 9.041-1.162l3.814-0.663c-2.146 0.239-7.452 0.724-8.875-0.166 0.255-0.623 0.698-1.037 1.327-1.244-0.497-0.249-1.824 0-2.903 0.414-1.41 0.58-1.576 0.83-0.497 0.83 2.239 1.107 1.824 1.549-1.244 1.327-2.736-0.499-2.736-0.499-0.663 0.663zM202.704 860.834v0zM632.94 869.892l0.134-0.020-0.076 0.045-0.058-0.025zM96.726 782.39c0.799-0.799 5.152 0.189 11.26 2.159-6.449-0.88-11.647-1.773-11.26-2.159zM201.48 860.437c-0.326-0.020-0.35-0.103-0.181-0.217 0.529 0.184 0.998 0.388 1.405 0.615-0.423-0.239-0.863-0.398-1.225-0.398zM507.163 899.992v0zM402.528 886.73l0.063-0.192c0.063 0.068 0.070 0.134-0.063 0.192zM575.461 870.888l-0.147-0.502c0.572 0.487 1.135 0.949 1.631 1.327-0.235 0.196-0.825-0.028-1.483-0.825zM448.312 908.874c1.244 0.25-1.41-0.249 0 0zM166.977 805.779c0.676-1.135 1.090-1.135 1.244 0-0.146 0.244-0.275 0.424-0.396 0.563l-0.809-0.356-0.040-0.207zM448.229 777.497l-0.061 0.070 0.128-0.214-0.066 0.144zM188.212 816.781l0.164 0.028-0.048 0.025-0.116-0.053zM380.55 881.255l0.133 0.099-0.219-0.147 0.086 0.048zM274.8 775.091l0.224-0.345 0.471 1.060c-0.355 0.297-0.588 0.066-0.694-0.716zM412.317 833.232l-0.166 0.121c0.076-0.086 1.307-1.128 0.166-0.121zM361.734 878.138c-0.751-0.297-1.279-0.509 0.568 0.215l0.012 0.015c1.844 1.962 0.736 1.932-3.331-0.098-2.517-1.339-0.701-1.405 2.751-0.133zM506.123 722.672l0.063 0.108c0.058 0.114-0.277-0.393-0.063-0.108zM203.886 861.765c-0.28-0.32-0.678-0.636-1.097-0.882 0.454 0.26 0.832 0.55 1.097 0.882zM454.783 446.394c5.13 2.431-1.198 8.275 6.635 12.192 1.332 1.707 1.581 3.531 0.747 5.475-5.142 0-11.849-9.059-17.251-4.148-18.673 14.005 5.432 35.712-8.045 47.691-2.194 2.085-25.028 3.911-29.112 1.576 8.991 5.137 6.64 25.705 13.851 32.015 1.079 0.913 1.162 0.83 0.747-0.331-0.747-1.907 0.747-1.659 1.99 0.331 0.31 0.505 0.547 7.558 0.663 7.051-1.145 4.199-20.754 1.165-22.809-3.4-0.794-2.742-1.761-5.425-2.903-8.045-8.752-19.694-31.944-9.185-37.656 4.645-7.569 18.332 2.865 49.469 19.243 59.221 14.933 9.001 14.968 5.397 28.947 3.4-2.979 0.355 9.039 0.605 9.372 1.162-0.166-0.331-0.083-1.244 0.249-2.073 0.497-1.327 0.663-1.327 2.156-0.166-0.171 1.853-0.336 3.703-0.497 5.558 0.829 0.663 1.659 1.742 1.907 2.321 0.497 1.576 17.916 1.824 20.403 0.331 1.173-0.782 13.888-4.999 13.105-3.483 0.497-0.996 1.493-2.489 2.239-3.317-0.868 0.951 1.195-31.815 6.885-29.444 1.132-0.635 2.321-0.829 3.566-0.58 5.351 8.56 5.432 20.388 2.903 29.942-4.676 18.41 27.532 38.178 41.056 44.456 3.152 1.576 3.317 1.576 2.489 0.166-0.993-0.565-1.877-1.256-2.655-2.073 0.58-0.249 1.742 0 2.655 0.497 3.014 1.506 1.438 16.236 2.24 20.237 0.497 2.82 1.742 3.152 1.576 0.497 0.040 0.686-3.723-9.897-0.083-5.392 1.079 1.327 1.824 2.82 1.576 3.235 1.261 0.484 2.449 1.12 3.566 1.907 1.326 2.567 2.017 5.276 2.073 8.128 0.688 0.55-0.437-3.771 5.225 0.83 2.558 2.114 21.787 14.898 29.169 18.761l-0.388 0.979c-4.956 10.62 40.314 24.294 40.973 22.975 0.509-0.847-10.64-5.8-10.865-8.626-0.166-1.327 0.249-2.903 0.913-3.483 2.795-2.795 46.871 14.202 39.972 23.371 3.092-5.175-24.125-10.182-21.725-6.283-0.515-0.81 9.385 1.582 10.202 1.99 4.623 2.568-10.269-0.994-8.461 4.23 0.414 1.079 0.249 1.327-0.58 1.079-0.391-0.935-1.056-1.543-1.99-1.824-2.963 1.248 1.453-4.53-0.414-4.065-1.742 0.497-2.655 2.82-2.24 5.558 0.343 1.884 4.196 5.612 5.972 7.216l-2.24-0.497c-3.4-0.83-2.82 0.249 0.996 1.742 6.635 2.655 4.81 7.465-2.737 7.216-6.171-0.202-26.092-9.092-22.809-6.138 4.206 3.558 14.797 9.717 20.072 11.695 10.545 3.722 24.403-0.969 35.136 1.198 7.723 1.559 13.999 6.872 22.176 7.926-4.67-4.171-18.577-20.116-19.243-20.32 0.996 0.249 0.249-0.497-1.742-1.742-12.015-7.38 27.018-4.835 25.048-7.051-9.284-9.831 1.215-1.698 1.135-1.001 0.093-0.051 0.144-0.152 0.109-0.326-0.414-2.489 0.166-3.317 2.156-2.903 1.243 0.229 7.929 8.461 5.392 8.461-0.734 0-1.286-0.222-1.599-0.396 0.288 0.242 0.802 0.727 1.599 1.64 1.765 2.118-3.624-0.592-5.066-1.667 0.756 1.234 1.292 2.56 1.582 3.99 1.476 0.25 2.858 0.775 4.148 1.576 0.166 0.996-0.166 1.244-1.41 0.913-3.8-0.911 1.582 4.386-1.079 5.558-1.079 0.414-1.41 0.747-0.83 0.747 0.58 0.083 0.83 0.497 0.497 1.079-0.33 0.461-6.829-1.493-7.713-1.493-1.742-0.083-2.321 0.166-1.99 0.996 0.61 1.626 6.040 2.035 0.083 3.152l-2.737 0.58c0.727 0.751 5.619 4.94 6.303 3.982 0.255-0.452 2.263 3.697 2.737 4.645 0.91 2.5-6.968-1.319-6.968 0.166 0-0.829 8.419 7.064 8.792 8.709 0.953 3.811-9.77 23.583-16.671 17.833 3.143 2.482-4.406 35.913-4.23 35.913-4.674 0-16.524-20.811-24.219-14.764-2.986 2.406-4.396 4.148-4.562 5.558-0.187 3.745 4.81 7.432 4.81 10.368 0-2.573-8.704 5.907-7.962 5.475-9.856 6.118-4.936 6.676-9.289 4.065-5.912-3.614-14.184 2.109-20.61-1.742-7.998-4.794-5.24-10.612-5.266-10.699-1.783-4.635-12.855-9.231-12.855-12.69 0-5.836 11.588-6.093 0.996-15.675-5.901-5.279-14.769-8.063-22.56-9.041 0.379-4.433-7.059-25.44-8.544-21.979-0.249 0.663-0.996 0.414-2.489-0.996-3.922-3.632-6.363 5.525-7.631 8.376-0.37 0.925 6.635-1.438 6.635 1.493-1.495 1.289-3.099 2.423-4.81 3.4 0.297 1.090 5.66 11.649 5.307 11.861-9.246 5.548-31.982 12.938-42.466 12.938-0.187 2.693 0.366 5.263 1.659 7.713 2.999 7.4-5.723 1.105-5.723 4.396 0 9.889 32.478 21.124 31.684 24.302-0.249 1.079 0.497 1.079 4.396-0.331 6.878-2.457 33.175 21.15 40.559 21.15-3.611 0-8.638-11.084-13.188-12.358-4.479-1.327-4.562-3.069-0.083-2.737 4.38 0.386 8.264-5.781 15.178 1.824 2.954 2.954 8.969-3.319 13.851-1.576 2.406 0.83 2.737 1.327 2.073 2.489-1.286 2.57-8.731 7.433-10.948 8.376-1.079 0.497-1.327 1.162-0.913 2.903 0.331 1.327 0.747 2.489 0.913 2.737 0.497 0.58 1.824-1.907 1.41-2.655-0.414-0.58 0.083-0.747 3.235-0.996 2.802-0.467-0.63 8.915 2.986 4.396 1.493-1.824 1.659-1.824 2.156-0.497 1.452 3.264 9.39 3.132 12.027 5.972 1.703 1.798 7.745 8.683 8.875 10.782 1.437 3.16-6.746 2.678-0.083 4.479 3.409-0.038 6.781-0.398 10.119-1.079 3.069 0.58 4.396-1.079 1.493-1.824-0.628-0.147-6.265-5.594-5.059-6.8-0.237 0.237 12.027 10.686 12.027 9.952-1.917 0.476-3.853 0.393-5.806-0.249 0 0.858 5.723 1.947 5.723 3.649-0.050 0.353 2.852-2.954 2.406-3.235 0.991 0.567 4.426-2.711 5.558-3.566-1.576 0.335-5.833 2.295-6.718 1.576-0.331-1.41-0.331-2.82 0-4.23 1.77-0.257 3.511-0.643 5.225-1.162 0-1.927-17.018-2.149-13.437-7.879 3.251-5.203 11.167 3.377 13.188 4.893 0.837-0.406 1.655-0.845 2.464-1.302 0.925 0.51 1.856 0.51 2.789-0.002 0.204 0.055 0.447 0.106 0.056-0.025l-0.235-0.031c-0.782-0.119-1.839-0.116-2.534 0.012 0.512-0.29 1.024-0.582 1.524-0.893 7.738-0.573-0.717 3.203-0.913 3.982-0.056 0.182 3.069 0.134 3.069 0.249 1.399-0.562 2.423-1.529 3.069-2.903-0.249-1.079-0.414-2.572-0.414-3.317-1.105-11.051-28.565-10.136-34.006-12.855-4.396-2.239-6.22-4.23-5.142-5.558 3.231-3.801 16.421 0.631 21.233-1.327 3.36-1.367 2.441-7.98 5.392-9.289 4.209-1.867 28.387-9.536 27.619-6.469-1.347 4.714-2.151-0.542-3.732 0.249 1.203-0.345-8.128 10.883-8.128 11.031 0 0.819 8.060-3.877 8.875-2.655-0.351-0.615 6.196-6.176 7.382-4.396 1.632 3.263 0.913 2.812 3.982 6.22 0.273 2.164 0.219 4.32-0.166 6.469-2.267 2.159-4.148 4.618-5.641 7.382-0.030 0.149 2.141 3.906 1.162 4.396 0.58-0.331 1.576-0.249 2.073 0.249 3.433 2.79 6.643-8.961 7.879-7.879 0.166 0.249 1.079 0.083 1.907-0.331 3.297-1.864 17.168 8.363 19.989 10.534-3.226 2.177-22.56 10.373-22.56 12.524 0 3.347 9.027 0.858 6.469 4.148-0.83 0.996-0.83 1.327 0 1.576 2.737 0.996-0.747 5.558-5.225 6.8-1.742 0.497-3.483 0.663-3.899 0.414 0.403 0.302-7.641 6.504-11.445 3.649 3.122 2.862-7.556 6.991-7.879 7.051 5.776-1.238-8.935 5.014-13.462 5.463-5.311 0.527-17.712 0.109-19.299-0.57l2.073 0.83-2.073 0.83c-7.288 2.787-35.109-13.752-33.84-14.598 0.254-0.507 7.897-1.708 9.372-1.99l-4.893 0.166c-5.558 0.083-6.552-0.913-3.732-3.566 1.73-1.614 9.556-4.138 11.53-3.152-0.179-0.075-13.495-11.248-12.855-10.202 0.409 0.82-0.325 0.418-1.42-0.419 0.181-0.151 0.157-0.544-0.239-1.157-1.205-1.226-1.667-1.281-1.392-0.171-1.664-1.415-3.357-2.989-3.336-2.981-2.073-0.913-2.737-0.913-3.317-0.083-1.079 1.742-0.331 3.483 1.99 4.645 4.81 2.323 3.152 7.796-1.907 6.055-2.323-0.747-2.489-0.747-1.99 0.746-0.053-0.169-3.488 15.009-3.566 15.013 4.603 0 25.833 13.788 27.951 12.441-24.333 15.208-35.049-24.125-51.59-25.629-2.482 0.971-5.052 1.413-7.713 1.327-2.063-1.705-4.384-2.921-6.968-3.649-3.566-0.58-4.562-2.489-1.493-2.986 0.996-0.166 1.907-0.747 2.156-1.41 2.134-6.404-31.798-1.539-30.025-0.83 1.493 0.58 1.493 0.58 0 1.162-0.913 0.414-1.742 0.249-2.156-0.414 1.856 2.784-6.699 2.878-7.548 2.655 1.849 0.867 5.851 2.5 7.879 1.824 0.663-0.249 1.41-0.913 1.576-1.493 3.907-10.418 19.081 4.242 18.91 4.23 0.887 0.089 7.382-4.201 7.382 2.156-2.071 2.154-4.615 3.536-7.631 4.148-1.99 0.663-1.907 1.99 0.166 3.069 0.29 0.157 14.1 15.12 14.1 13.271 0 5.495-10.595-0.698-10.948-0.58 3.377-1.689-10.738-4.598-10.073-3.077-1.442-2.169-2.974-4.27-4.607-6.295 0.547 2.043 0.353 4.007-0.58 5.889-0.742 0.812-17.815 2.865-19.243 3.235-11.006 2.853-20.913 8.756-34.421 6.055-1.617-0.285-25.036-15.695-25.795-14.431 0.691-1.382 6.471 0.191 4.976-3.649-1.289-3.293 24.275 3.75 29.619 5.74-1.808-0.913-3.655-1.738-5.568-2.423-1.070-0.845-3.066-6.83-2.489-7.382 0.948-1.021 20.799-2.254 22.478-0.996-2.428-2.428-26.292 1.675-26.292-3.732 0-11.42 32.657-6.89 40.226-5.806-4.434-0.976-11.979-7.425-14.265-6.968-3.4 0.58-4.148 0.996-3.4 1.742 0.331 0.249 1.244 0.083 2.156-0.414 1.99-1.079 2.986-0.249 1.41 1.244-3.12 3.12-20.411-2.312-25.712-1.99-9.090 0.343 10.411 1.15 4.645 5.723-5.523 4.487-17.344-0.557-22.478 5.307-3.995 4.699-11.528-2.368-15.758-0.83-3.239 1.079 3.317 0.53 3.317 3.732 0 1.906-11.177-4.148-12.11-4.148 0.421 2.373 0.186 4.686-0.684 6.94-0.698-0.761-12.365-2.005-10.928-1.466-5.995-2.998-14.365-0.976-20.072-4.645 0.679-0.237 1.344-0.514 1.99-0.83-14.032-10.022-62.366 5.47-77.938 7.636-30.917 4.298-57.784-13.442-88.523-13.442-0.582 0 4.983-9.324 4.479-10.534-0.747-2.073-3.566-4.396-5.142-4.313-1.786 0.128-4.592 0.891-5.157 1.276-6.6-2.293-21.904-1.689-26.445-7.994-3.379-4.63 18.577-4.666 20.736-3.317-3.226-2.151 2.302-3.617-5.392-5.475-13.765-2.95-25.879-7.775-39.646-11.445-1.498-0.374-7.026-9.079-6.968-10.782 0.162-5.186 10.522-1.533 9.704-2.986-0.544-0.906-8.978-7.114-8.544-7.548 2.946-2.946 16.062 1.518 19.326 0.249 1.99-0.747 1.99-0.747-1.659-3.483-4.635-3.337-36.851-17.215-54.43-22.889 10.105 1.38 23.285 2.734 22.912 2.070 1.486 2.809 19.903 12.158 36.118 19.366 0.136 0.699 0.404 0.82 0.809 0.356 10.706 4.732 20.307 8.462 23.205 8.643 0.913 0.083 2.073 0.083 2.572 0 0.656-0.094 15.261 8.234 15.261 6.635 0-1.824-8.293-5.412-8.293-6.8 0 0.994 27.981 3.995 30.274 5.059 6.887 3.359 0.573 1.867 0.83 3.152 0.353 3.879 11.359 1.675 5.889 0.166-6.916-1.886 7.594-2.119 5.806-1.493 2.321-0.83 2.321-0.913 0.58-1.41-6.668-2.051 21.382-2.832 21.399-2.82-1.026-0.653 11.679-15.382 2.406-18.164-3.718-1.352 2.138-3.293 4.244-3.077-1.559-1.755-6.595-4.496-2.336-4.636h1.824l-1.824-0.746c-1.576-0.663-1.824-1.327-1.576-3.483 0.249-2.323 0.58-2.737 2.737-2.903l8.544 2.239 0.83 2.073c-0.88-2.973 0.829-3.983 0.829-6.469 0 2.452-3.413-1.967-5.528-6.501 0.159-0.134 0.341-0.363 0.55-0.716-0.136-1.004-0.477-1.115-1.021-0.345-1.604-3.848-1.993-7.397 1.768-6.456-1.176-0.262-0.547-6.656-1.576-7.299 0.655-1.538 1.346-3.057 2.073-4.562 4.211-1.619-13.689 0.307-5.972 1.493 1.576 0.249 1.576 0.331-0.249 0.249-6.706-0.32 0.497-7.609 0.497-7.796 0.083-0.58 0.166-1.327 0.249-1.742 0-1.687 6.764-6.322 7.879-7.134 1.751-1.339-35.096-50.543-36.794-57.27-3.233-12.806 1.959-26.748 1.959-39.356 0.083-2.718 7.163-6.335 9.954-5.889 1.665 0.333 8.489-32.406 11.279-36.826 1.742-2.737 1.742-3.069 0.497-4.976-0.358-0.56-6.303-3.231-6.303-2.655 0-1.404 24.232-35.243 23.472-35.581 0.497 0.249 1.659 0.747 2.572 0.996 4.045 1.619-1.619 10.206-0.747 8.461-0.795 0.971-1.846 1.413-3.152 1.327-0.249-1.162-0.414-0.996-0.497 0.663 0 1.145-0.988 10.146-0.746 10.285 0.91 0.683-6.65 18.322-5.972 19.409-0.444-0.666-3.954 7.064-1.162 3.649 1.244-1.493 1.244-1.493 0.747 0.913-1.152 1.576-2.59 2.82-4.313 3.732-1.413 2.199-1.654 14.719 2.82 12.855 0.83-0.414 1.824-0.58 2.156-0.497 1.162 0.249 4.148-3.152 3.732-4.23-0.109-0.254-0.418-15.593 0.249-15.593 4.466 0 5.866-13.513 12.524-15.178 1.659-0.497 1.659-0.58 0.414-2.572-3.375-4.726 10.996-16.812 13.105-21.482 3.74-8.283-0.57-20.96 3.152-26.541 7.273-11.515 34.214-25.036 47.442-27.454 11.344-2.073 13.081 0.439 24.385-4.065 4.868-1.939 23.952-21.122 32.098-15.013 2.237 1.438 10.366-23.24 11.944-24.053 1.38 0.124 2.762 0.179 4.148 0.166 0-5.707 10.201-9.952 12.938-10.948 3.69-1.23 5.626-5.017 5.641-5.059 0.192-0.524 5.178-3.442 7.546-2.328zM614.444 726.487c-1.148-0.655-2.114-0.487-2.903 0.497 0.414 0.664 2.903 0.25 2.903-0.497zM605.735 737.768c0.663-1.079-0.414-1.079-2.073 0-0.012 1.346 0.679 1.346 2.073 0zM667.961 731.728l-0.434-0.182c0.171 0.116 0.312 0.164 0.434 0.182zM652.098 777.164c1.493 1.162 3.814 1.659 3.814 0.913 0-0.166-1.244-0.747-2.655-1.244-2.486-0.829-2.57-0.746-1.16 0.331zM628.958 876.279l-0.043-0.051c-0.916-1.137-1.455-1.125-1.616 0.051 0.936 1.186 1.488 1.191 1.654 0.023l0.005-0.023zM614.941 850.152c0.497 1.244 1.99 0.913 1.99-0.497-0.994-1.162-1.659-0.996-1.99 0.497zM627.299 843.103c-2.318-3.864 0.868 1.78 0.061 0.128l-0.061-0.128zM687.764 863.092c0.331-0.414-0.249-0.58-1.162-0.331-0.946 1.43-0.56 1.541 1.162 0.331zM667.525 879.265c1.972 0.55 3.907 0.441 5.806-0.331-1.972-0.552-3.907-0.441-5.806 0.331zM666.697 883.412c-0.89-0.83-1.829-0.968-2.82-0.414 0.414 0.746 2.82 1.077 2.82 0.414zM666.283 882.002c2.073 0.497 3.649 1.244 3.649 1.576 0.59 2.151 0.729 2.434 0.421 0.858l-0.005-0.030c0.986-0.401 2.010-0.678 3.069-0.829 0.497-0.83-0.747-1.327-4.81-2.073-6.471-1.162-7.881-0.913-2.323 0.497zM659.232 887.891c2.903 0.913 3.982 0.913 2.489 0-0.663-0.414-1.99-0.747-2.903-0.747-1.327 0.083-1.327 0.166 0.414 0.747zM648.035 894.526c2.24 0.913 2.24 0.913 1.659 0-0.249-0.414-1.162-0.83-1.907-0.747-1.162 0.002-1.079 0.167 0.249 0.747zM641.649 861.266c0.996 2.572 3.483 4.479 3.483 2.655 0-0.414 0.996-0.996 2.156-1.244 2.903-0.746 1.659-1.824-2.737-2.406-2.984-0.33-3.4-0.247-2.901 0.996zM632.526 875.699c-0.663 0.249-0.414 0.497 0.497 0.497 0.913 0.083 1.41-0.166 1.079-0.414-0.25-0.249-0.996-0.331-1.576-0.083zM631.271 900.272l0.010-0.023c0.742-2.82 8.169-0.497 5.558-1.742-1.162-0.414-3.732-0.913-5.806-0.996-5.649-0.257-0.638 5.821 0.239 2.761zM615.051 882.358c0.204 0.055 0.447 0.106 0.056-0.025l-0.235-0.031c-0.829-0.126-1.985-0.121-2.668 0.031 0.946 0.544 1.894 0.545 2.847 0.025zM600.344 882.085c1.576 1.079 2.489 1.079 2.489 0-1.123-1.221-1.952-1.221-2.489 0zM603.662 875.45c-0.676-1.135-1.090-1.135-1.244 0 0.676 1.135 1.090 1.135 1.244 0zM601.753 899.253c-0.199-0.080 11.072 4.489 6.469 2.323l-0.303-0.197c-2.219-1.384-4.126-4.032-5.254-6.439-0.8 1.332-1.105 2.771-0.911 4.313zM600.51 896.102c0.736 0 0.784-0.138 0.272-0.399l-0.189-0.098c-0.747-0.249-0.83-0.83-0.249-1.99 0.913-1.659-0.249-2.321-1.244-0.747-0.747 1.244 0.166 3.317 1.41 3.235zM586.077 883.992c-0.663 0.249-0.414 0.497 0.497 0.497 0.913 0.083 1.41-0.166 1.079-0.414-0.249-0.249-0.994-0.331-1.576-0.083zM573.554 858.696c0-1.493-0.166-2.239-0.331-1.659-1.1 0.537-2.206 1.062-3.317 1.576 0.331 0.249 0.166 0.996-0.331 1.659 1.052-1.17 3.98 4.050 3.98-1.576zM564.181 876.113c-0.497-1.742-2.073-3.4-2.572-2.82-0.976 0.976 4.053 7.266 2.572 2.82zM553.482 855.876c1.659-1.244 1.659-1.327-0.331-0.996-1.162 0.166-2.156 0.747-2.406 1.327-0.414 1.327 0.747 1.244 2.737-0.331zM531.087 871.137c1.37-1.234 9.303 6.227 9.952 5.142-0.331 0.497-0.913 0.58-1.41 0.331-0.497-0.331-0.663 0.083-0.497 0.996 0.202 1.314 8.128 3.481 8.128 1.824 0-0.331-0.913-1.244-2.073-1.99-2.572-1.659-2.737-3.152-0.331-2.572 0.996 0.249 1.493 0.166 1.079-0.166-0.734-0.6-15.833-7.765-15.758-7.796-1.006 0.378 1.407 3.834 0.911 4.23zM528.517 865.414c0.913 0.083 1.41-0.166 1.079-0.414-0.249-0.249-0.996-0.331-1.576-0.083-0.664 0.249-0.416 0.497 0.497 0.497zM524.867 870.141c0-0.166-0.58-0.497-1.244-0.83-3.442-1.291 1.244 2.946 1.244 0.83zM468.965 697.457c-3.982-4.065-6.22-4.645-6.386-1.742-0.545 10.544 10.338 15.047 13.498 23.608-1.862-5.046 13.955 11.142 13.955 4.676 0 1.223-21.389-26.864-21.067-26.542zM488.372 692.978c-4.668 2.514 2.989 2.409 2.321 1.41 0.376 0.658 0.964 1.256 1.68 1.811l0.558 0.926-0.553-0.921c4.088 3.167 12.85 4.731 16.809 5.317 1.67 0.63 3.302 0.684 4.893 0.166 0.003-3.442-22.464-10.477-25.709-8.709zM515.412 652.835c-0.988 1.47-0.739 1.581 0.747 0.331 0.249-0.497-0.083-0.58-0.747-0.331zM514.915 666.852c-0.535 1.612-0.121 1.722 1.244 0.331 0.911-1.408-0.083-1.742-1.244-0.331zM533.159 709.82l0.002-0.005c-0.073-2.396-0.018-0.343-0.003-0.017-0.205-5.7-15.367-3.639-17.662-4.214-3.982-1.079-3.982 0.166 0.083 2.073-0.797-0.398 17.536 3.538 17.581 2.162zM506.185 722.78l-0.063-0.108c-2.502-3.336 0.782 1.352 0.063 0.108zM505.377 724.911c-2.361-0.514-4.711-0.431-7.051 0.249 2.355 0.532 4.706 0.449 7.051-0.249zM504.132 721.511c3.786-1.607 7.942 5.074 9.869-0.414 1.99-5.723-1.659-8.958-4.645-4.065-1.824 3.152-3.483 3.317-2.903 0.331 0.464-2.433-6.984-13.603-10.119-13.603-2.002 0 1.859 7.402-1.742 6.8-1.079-0.489-2.124-1.034-3.158-1.607 2.038 2.252 3.695 7.468 5.231 8.492-0.439 2.174-1.544 3.916-3.317 5.225 3.672 1.059 7.266 0.671 10.784-1.16zM471.786 865.828c-1.148-0.655-2.114-0.487-2.903 0.497 0.414 0.664 2.903 0.25 2.903-0.497zM474.521 739.426c-0.529-0.784-0.971-1.612-1.327-2.489 7.351 0 3.326 1.881 2.239 3.4-0.331 0.58-0.249 0.83 0.166 0.497 4.832 1.123 9.725 1.869 14.681 2.239 0.746-0.249 0.996-1.162 0.83-2.406-0.603-2.716 4.989-3.882 4.976-3.899-0.484-0.553-3.284-7.347-3.418-7.98-2.131-2.065-20.024 1.12-15.16 4.081 3.069 1.824 2.903 2.903-0.331 2.073-0.653-0.592-1.289-1.2-1.907-1.824-1.342 0.895-12.038-3.748-13.437-4.148-2.073-0.497-2.073-0.497-0.414 0.83 1.576 1.41 1.493 1.41-1.824 1.079-8.544-1.064 11.281 8.547 14.928 8.547zM441.097 756.346c0.966 2.255 2.625 3.665 4.976 4.23-1.147-2.050-2.805-3.46-4.976-4.23zM442.59 776.335c2.36 2.116 4.631 2.623 5.579 1.231-0.209 0.351-0.419 0.717 0.061-0.070l0.066-0.143c1.317-2.845-0.202-16.395-3.8-10.64-3.372 5.298-0.895-5.988-3.732 3.235-0.497 1.41-0.249 1.99 1.327 2.572l1.907 0.83h-1.824c-2.489 0.081-2.406 0.578 0.414 2.984zM416.63 611.696c0.553 1.105 1.105 1.105 1.659 0-0.553-1.105-1.107-1.105-1.659 0zM392.162 826.515c-1.079 0.747-1.079 0.83 0 0.913 2.542 0.318 18.744 6.819 16.837 7.962 0.94-0.548 2.302-1.384 3.152-2.035l0.166-0.121c1.41-1.244 5.641-0.746 10.948 1.079-6.693-2.436-23.475-12.999-31.102-7.798zM389.093 853.801c4.078 0.452 7.018 4.065 11.695 4.065 3.069 0.331-0.331 2.655-3.566 2.489l-2.986-0.083c1.417 0.065 5.932-2.239 5.225-2.239-2.157 1.079-6.741 1.604-9.372 2.156 7.175 1.125 19.797 1.826 24.053 3.649-0.913-0.331 2.323 0.996 0 0-0.913-0.331-2.903-1.162-4.479-1.742-2.737-0.996-2.737-1.079-0.829-1.824 2.186-0.84 7.495-0.129 10.285 0.331-1.756-0.673-23.512-9.583-25.13-7.962-0.913 0.913 8.426 2.771 8.626 3.069 0.244 0.386-12.966-2.925-13.188-2.82-1.496 0.746-1.579 0.911-0.335 0.911zM385.857 882.831c0.913 0.083 1.41-0.166 1.079-0.414-0.249-0.249-0.996-0.331-1.576-0.083-0.663 0.249-0.414 0.497 0.497 0.497zM378.477 881.255c2.154 0.958 3.437 0.984 2.206 0.099l-0.133-0.099-0.088-0.048c-2.275-1.281-2.943-1.269-1.985 0.048zM188.374 816.81l-0.164-0.028c-0.613-0.129-1.635-0.124-2.325 0.028 0.779 0.56 1.592 0.563 2.441 0.025 0.139 0.055 0.31 0.106 0.048-0.025zM190.283 816.644c0.414 0.747 2.82 1.079 2.82 0.414-0.891-0.829-1.831-0.966-2.82-0.414zM200.983 850.567c-1.412-1.238-1.826-1.238-1.244 0 1.576 0.996 1.907 0.996 1.244 0zM217.487 862.096c0.913 0.083 1.41-0.166 1.079-0.414-0.249-0.249-0.996-0.331-1.576-0.083-0.663 0.249-0.414 0.497 0.497 0.497zM215.082 824.856c-0.419-0.653-0.288-0.414-0.138-0.169-1.756-2.252-8.204-2.665 0.386 0.915 0.166 0 0-0.249-0.249-0.746zM216.989 825.933c-0.663 0.249-0.414 0.497 0.497 0.497 0.913 0.083 1.41-0.166 1.079-0.414-0.249-0.249-0.994-0.331-1.576-0.083zM224.206 827.675c0.663-0.331 1.244-0.663 1.244-0.829 0-2.116-4.688 2.121-1.244 0.829zM273.638 806.692c1.324 0.809 1.665 0.896 1.322 0.212l-0.161-0.295c-0.512-0.767-0.575-1.364-0.482-1.786-0.21 0.177-0.479 0.381-0.845 0.625-0.663 0.331-0.58 0.746 0.166 1.244zM274.22 787.283c-0.497-0.996-0.996-1.907-1.079-1.99-0.512 1.556-0.207 2.938 0.913 4.148 0.911-0.333 0.911-0.83 0.166-2.157zM273.804 794.914c-0.837 0.621-0.366 1.092 1.41 1.41 0-0.166-0.663-0.83-1.41-1.41zM276.541 811.336c-0.497 1.162-0.414 1.244 0.414 0.497 0.58-0.58 0.83-1.244 0.58-1.493-0.247-0.249-0.746 0.166-0.994 0.996zM278.947 808.268c-0.162-1.195-0.716-1.195-1.659 0 0.162 1.195 0.714 1.195 1.659 0zM277.372 792.924c0.111 1.669 0.499 1.669 1.162 0-0.113-1.669-0.5-1.669-1.162 0zM277.372 797.403c-0.403 0.603 1.609 4.567 3.317 1.576 0.118-0.179-3.14-1.862-3.317-1.576zM277.372 801.548c0.328-0.411 6.588 2.872 4.479 0.497-1.162-1.408-3.816-1.657-4.479-0.497zM283.010 794.083c0.913 0.083 1.41-0.166 1.079-0.414-0.249-0.249-0.996-0.331-1.576-0.083-0.663 0.249-0.414 0.497 0.497 0.497zM287.241 740.172l-0.066-0.056c-0.413-0.379-1.743-0.606-3.085-0.606-1.742 0.083-2.073 0.249-0.996 0.497 0.913 0.249 1.99 0.747 2.406 1.162 0.85 0.774 2.113 0.172 1.811-0.787 0.124 0.209 0.24 0.368-0.070-0.209zM289.397 742.661c-2.447 3.914-4.419 6.855-4.535 7.738l0.010 0.222c0.371 0.414 4.84-8.486 4.525-7.96zM425.669 475.092c-2.406 0.166-2.655 0.331-1.493 1.162 1.327 0.996 1.327 1.079 0.083 1.576-2.126 1.773-1.96 2.575 0.497 2.406 1.052-0.648 2.331-2.081 2.855-3.153l0.048-0.081 0.212-0.505c0.568-1.405 0.262-1.478-2.202-1.404zM652.098 830.578c-0.913 0-1.162-0.249-0.497-0.497 0.58-0.249 1.327-0.166 1.576 0.083 0.331 0.249-0.166 0.497-1.079 0.414zM631.281 900.249v0zM615.107 882.333l-0.056 0.025-0.179-0.055 0.235 0.030zM427.661 477l-0.048 0.081 0.26-0.588-0.212 0.507zM627.299 843.103v0zM631.608 730.78c-0.103 0.172-0.237 0.345-0.409 0.517 0.167-0.167 0.278-0.343 0.409-0.517zM653.177 830.164c-0.249-0.249 0.331 0.249 0 0zM287.174 740.116l0.066 0.056 0.070 0.209-0.136-0.265zM628.915 876.227l0.043 0.051-0.005 0.023-0.038-0.075zM670.346 884.406v0zM563.147 696.551c-0.495-0.166-1.226-0.505-2.146-0.986 1.498-3.524 1.528-0.035 2.146 0.986zM533.162 709.815l-0.002 0.005-0.002-0.022 0.003 0.017zM214.945 824.687v0zM563.85 696.629c-0.312 0.312-0.529 0.209-0.701-0.076 0.365 0.121 0.616 0.161 0.701 0.076zM492.382 696.205v0zM600.593 895.605l0.189 0.098c-0.116-0.031-0.724-0.277-0.189-0.098zM274.8 806.609v0zM635.843 869.892l-0.056 0.025-0.179-0.055 0.235 0.030zM542.783 904.562c-1.675-0.595-8.386-2.683-11.362-4.23-3.579-2.005 5.506-6.169 5.392-8.128-0.164-4.441 28.947 3.783 24.716 13.934-0.439 0.949-1.14 1.127-3.626 0.814l-1.102-0.151c-4.732-0.381-9.405-1.127-14.018-2.239zM557.878 900.581c-0.747 0.249-1.493 0.083-1.742-0.497-0.166-0.497-0.497-0.331-0.83 0.497-0.58 1.576 0.83 1.907 2.737 0.497 1.079-0.746 1.079-0.829-0.166-0.497zM193.766 811.502c-0.166 0-2.156-0.913-4.562-1.907-3.196-1.37-16.907-5.021-18.496-7.879-1.162-2.239 0.249-3.732 2.986-2.986 4.050 1.266 7.351 2.535 11.362 4.065 2.477 1.006 3.352 2.028 3.256 4.181 0.424-4.157 6.946 6.018 5.453 4.527zM479.251 542.026c0.51-0.365 1.016-0.598 1.518-0.726-0.121 0.437-0.287 0.872-0.522 1.301-0.335-0.139-0.668-0.325-0.996-0.575zM453.538 561.019c5.059 1.576-1.162-0.331 0 0zM480.576 538.21c-0.597-1.448 20.342 0.532 23.058 1.41-6.051 3.694-24.171 12.592-26.375 16.34 0.414-0.663 0.166-0.747-0.83-0.414-1.597-0.184-2.785 0.341-3.566 1.576 0.497 2.489-14.265 5.475-19.326 3.899 0.628 0.179-19.777-8.999-14.598-10.037 5.034-1.079 10.542 6.075 15.758 5.889 1.907-0.083 2.737-0.249 1.99-0.497-1.281-0.257 19.414-6.224 23.556-13.775 1.162 0.481 2.35 0.295 3.566-0.575-0.994-0.756-2.008-0.988-3.044-0.726 0.282-1.011 0.26-2.043-0.189-3.090zM500.981 525.106c4.784-2.391 11.211 2.759 14.93-2.406l1.659-2.321c5.995 7.954 14.363 2.737 19.574 6.386 1.327 0.996 1.162 1.327-1.659 4.065-5.423 5.152-20.096 10.52-27.039 7.051-6.104-2.959 5.796-3.334 2.489-8.128-2.835-4.109-9.81 2.028-11.778-1.907-0.664-1.163-0.333-1.745 1.824-2.739zM508.446 537.879c2.321 1.162-2.737-1.327 0 0z" />
<glyph unicode="&#xe902;" glyph-name="arrow-01" d="M512 696.471c-137.231 0-248.471-111.24-248.471-248.471s111.24-248.471 248.471-248.471 248.471 111.24 248.471 248.471-111.24 248.471-248.471 248.471zM594.477 435.305l-143.405-143.405c-2.936-2.936-6.792-4.412-10.647-4.412s-7.71 1.476-10.647 4.412c-5.888 5.888-5.888 15.405 0 21.293l134.792 134.807-134.807 134.807c-5.888 5.888-5.888 15.405 0 21.293s15.405 5.888 21.293 0l143.405-143.405c3.479-3.479 4.638-8.177 4.021-12.695 0.632-4.518-0.542-9.216-4.006-12.695z" />
<glyph unicode="&#xe903;" glyph-name="arrow-long-01" d="M383.94 429.944h188.055l-71.138-72.267h50.281l88.922 90.323-88.922 90.323h-50.281l71.138-72.252h-188.055v-36.126zM512 94.118c-195.132 0-353.882 158.75-353.882 353.882s158.75 353.882 353.882 353.882 353.882-158.75 353.882-353.882-158.75-353.882-353.882-353.882zM512 771.765c-178.522 0-323.765-145.242-323.765-323.765s145.242-323.765 323.765-323.765 323.765 145.242 323.765 323.765-145.242 323.765-323.765 323.765z" />
</font>
</defs>
</svg>
